<svg xmlns="http://www.w3.org/2000/svg" viewBox="0 0 37 24"><g xmlns="http://www.w3.org/2000/svg" clip-path="url(#clip0_2882_268)">
<path d="M0 4C0 1.79086 1.79086 0 4 0H33C35.2091 0 37 1.79086 37 4V20C37 22.2091 35.2091 24 33 24H4C1.79086 24 0 22.2091 0 20V4Z" fill="white"></path>
<path d="M0 1.57377C0 0.704601 0.701183 0 1.56614 0H35.4339C36.2988 0 37 0.704601 37 1.57377V22.4262C37 23.2953 36.2988 24 35.4339 24H1.56614C0.701185 24 0 23.2953 0 22.4262V1.57377Z" fill="black"></path>
<path d="M36.0212 0.0491803H0.783069C0.377621 0.0491803 0.0489418 0.379462 0.0489418 0.786885V23.2131C0.0489418 23.6205 0.377621 23.9508 0.783069 23.9508H36.0212C36.4266 23.9508 36.7553 23.6205 36.7553 23.2131V0.786885C36.7553 0.379462 36.4266 0.0491803 36.0212 0.0491803Z" fill="#006FCF"></path>
<path fill-rule="evenodd" clip-rule="evenodd" d="M36.8181 4.34532H33.7718L32.1796 8.97061L30.518 4.34532H27.4025V11.5473L24.2176 4.34532H21.6562L18.4713 11.7036H20.6867L21.3098 10.232H24.633L25.2561 11.7036H29.4101V6.58778L31.2795 11.7036H33.0103L34.8794 6.58778V11.7036H36.8181V12.8248H34.2565L32.1796 15.1375L30.0332 12.8248H21.2405V20.1832H29.9641L32.1101 17.8005L34.2565 20.1832H36.8181V21.094H33.7718L32.1101 19.2721L30.4485 21.094H20.1329V12.6846H16.8096L20.9637 3.22389H24.9791L26.4331 6.4476V3.22389H31.4179L32.2487 5.67671L33.0796 3.22389H36.8181V4.34532ZM36.8181 14.4366L34.9489 16.4689L36.8181 18.5012V20.1832L33.4257 16.4689L36.8181 12.8248V14.4366ZM27.4025 20.1832V18.4312H23.2483V17.31H27.333V15.628H23.2483V14.5068H27.4025V12.8248L30.8641 16.4689L27.4025 20.1832ZM21.9328 8.62007L22.9022 6.23742L23.8715 8.62007H21.9328Z" fill="white"></path>
</g></svg>