<svg xmlns="http://www.w3.org/2000/svg" viewBox="0.1803278923034668 0 36.99997329711914 24"><g xmlns="http://www.w3.org/2000/svg" clip-path="url(#clip0_2882_269)">
<path d="M0.180328 4C0.180328 1.79086 1.97119 0 4.18033 0H33.1803C35.3895 0 37.1803 1.79086 37.1803 4V20C37.1803 22.2091 35.3895 24 33.1803 24H4.18033C1.97119 24 0.180328 22.2091 0.180328 20V4Z" fill="white"></path>
<path d="M0.180328 1.57377C0.180328 0.704601 0.885241 0 1.7548 0H35.6059C36.4754 0 37.1803 0.704601 37.1803 1.57377V22.4262C37.1803 23.2953 36.4754 24 35.6059 24H1.7548C0.885241 24 0.180328 23.2953 0.180328 22.4262V1.57377Z" fill="black"></path>
<path d="M36.3931 0.0491803H0.967562C0.559958 0.0491803 0.22953 0.379462 0.22953 0.786885V23.2131C0.22953 23.6205 0.559958 23.9508 0.967562 23.9508H36.3931C36.8007 23.9508 37.1311 23.6205 37.1311 23.2131V0.786885C37.1311 0.379462 36.8007 0.0491803 36.3931 0.0491803Z" fill="#B5DC19"></path>
<path fill-rule="evenodd" clip-rule="evenodd" d="M8.27666 15.7602L8.25597 15.7015L7.36404 13.153L7.34341 13.0943L7.40174 13.0736L10.0074 12.1504C10.0999 12.1174 10.1944 12.101 10.2917 12.101C10.6528 12.101 10.9756 12.3306 11.0942 12.6749L11.7241 14.472L11.7446 14.53L11.6856 14.5508L8.33489 15.7387L8.27666 15.7602Z" fill="#A3CA3F"></path>
<path fill-rule="evenodd" clip-rule="evenodd" d="M8.31312 15.6794L7.42326 13.1308L9.54422 12.3794L10.0291 12.2083C10.1164 12.1776 10.2046 12.1633 10.292 12.1633C10.6183 12.1633 10.9218 12.3672 11.0362 12.6943L11.6667 14.492L8.31312 15.6794ZM9.54422 12.2477L7.38126 13.0157L7.26544 13.0564L7.30594 13.1737L8.19797 15.7215L8.23848 15.839L8.35363 15.7974L9.54422 15.3766L11.7065 14.6094L11.823 14.5686L11.1535 12.6527C11.0248 12.2849 10.6794 12.038 10.292 12.038C10.1883 12.038 10.0866 12.0572 9.98775 12.0916L9.54422 12.2477Z" fill="white"></path>
<path fill-rule="evenodd" clip-rule="evenodd" d="M10.6772 18.2335C9.76317 18.2335 8.94498 17.6502 8.64077 16.7822L8.41326 16.1294L8.39266 16.0707L11.9958 14.7926C12.0888 14.7611 12.1869 14.7432 12.2858 14.7432C12.6568 14.7432 12.9881 14.9808 13.1131 15.3315L13.7649 17.2029L13.7862 17.2616L11.3951 18.1104C11.1626 18.192 10.9217 18.2335 10.6772 18.2335Z" fill="#194084"></path>
<path fill-rule="evenodd" clip-rule="evenodd" d="M11.0896 18.1304C10.9517 18.1591 10.8139 18.1719 10.6766 18.1719C9.81233 18.1719 9.00268 17.6288 8.69916 16.7614L8.47108 16.108L12.0158 14.8519C12.1053 14.8199 12.1963 14.8061 12.2859 14.8061C12.622 14.8061 12.9355 15.0159 13.0535 15.3529L13.7081 17.2245L11.3746 18.0518C11.2794 18.0861 11.1848 18.1112 11.0896 18.1304ZM11.0896 15.0495L8.43046 15.9906L8.31324 16.0335L8.35375 16.1494L8.58263 16.8022C8.8954 17.6968 9.737 18.2951 10.6766 18.2951C10.8159 18.2951 10.9538 18.2828 11.0896 18.2565C11.1991 18.2357 11.3085 18.2064 11.4158 18.1677L13.7479 17.3404L13.8646 17.2996L13.8241 17.1829L13.1693 15.3122C13.0386 14.9329 12.6839 14.6817 12.2859 14.6817C12.18 14.6817 12.0755 14.6996 11.9753 14.7346L11.0896 15.0495Z" fill="white"></path>
<path fill-rule="evenodd" clip-rule="evenodd" d="M15.8739 18.2785C14.6763 18.2785 14.0429 17.6638 14.0429 16.4973C14.0429 15.7916 14.2576 15.1468 14.6471 14.6838C15.0672 14.1842 15.6586 13.9216 16.3587 13.9216C16.8861 13.9216 17.3303 14.0461 17.6474 14.2815C18.0077 14.5521 18.1968 14.9514 18.2074 15.4724V15.5053H17.0311V15.4724C17.0311 15.0286 16.8114 14.8298 16.321 14.8298C15.4489 14.8298 15.22 15.9362 15.22 16.5209C15.22 16.908 15.3465 17.3689 15.9528 17.3689C16.5086 17.3689 16.7354 16.9109 16.82 16.6375L16.8278 16.6132H18.0092L17.9943 16.6575C17.6431 17.7174 16.9096 18.2785 15.8739 18.2785ZM20.0377 17.437C20.502 17.3339 20.6768 16.946 20.7842 16.566L20.8722 16.2489C20.6285 16.3685 20.3518 16.3885 20.0834 16.4057L20.0377 16.4086L19.9907 16.4128C19.5168 16.465 19.2005 16.5924 19.2005 17.0398C19.2005 17.3532 19.5103 17.4634 19.777 17.4634C19.8714 17.4634 19.9574 17.4548 20.0377 17.437ZM20.0377 15.7087L20.0818 15.7029C20.7883 15.6327 21.1119 15.5999 21.1119 15.1976C21.1119 14.7682 20.5984 14.7346 20.4408 14.7346C20.2867 14.7346 20.1509 14.7632 20.0377 14.8112C19.8288 14.9056 19.6923 15.0751 19.6527 15.3064L18.5806 15.3335C18.614 14.8097 18.8429 14.4469 19.2303 14.2142C19.4543 14.0811 19.7236 13.9924 20.0377 13.9495C20.1814 13.9295 20.3335 13.9216 20.4955 13.9216C21.1922 13.9216 21.684 14.0639 21.9597 14.3452C22.1233 14.5119 22.2077 14.731 22.2107 14.9908C22.2107 15.1746 22.18 15.4066 22.1233 15.7158L21.7635 17.3553C21.7273 17.4899 21.7102 17.7311 21.7102 17.8978C21.7102 17.9666 21.7244 18.0567 21.7474 18.1239L21.7622 18.1677H20.6057L20.5722 17.8176C20.4258 17.963 20.2424 18.0774 20.0377 18.1576C19.8317 18.2363 19.6035 18.2785 19.3695 18.2785C18.4406 18.2785 18.0234 17.7246 18.0234 17.175C18.0234 16.3956 18.5984 15.8775 19.6006 15.7558L20.0377 15.7087ZM23.4077 18.1677H22.2298L22.2392 18.129L23.0835 14.0568L23.0886 14.0311H24.213L24.2045 14.0718L24.0764 14.6365C24.348 14.1906 24.8456 13.9216 25.4151 13.9216C25.5322 13.9216 25.6424 13.928 25.7625 13.9444L25.7987 13.948L25.7916 13.9846L25.5649 15.0702L25.5578 15.1038L25.5245 15.0974C25.499 15.091 25.4704 15.0853 25.4433 15.0787C25.3183 15.0531 25.1888 15.0258 25.0616 15.0258C24.1845 15.0258 23.9202 15.7286 23.7893 16.3384L23.4134 18.1412L23.4077 18.1677ZM27.3661 17.3439C28.0272 17.185 28.3383 16.2961 28.3383 15.6771C28.3383 15.1389 28.0585 14.8298 27.5729 14.8298C27.5011 14.8298 27.4314 14.8375 27.3661 14.8519C26.6971 15.0015 26.3944 15.8668 26.3944 16.4973C26.3944 16.8987 26.5926 17.3689 27.1514 17.3689C27.2267 17.3689 27.298 17.3603 27.3661 17.3439ZM27.3661 13.923L27.457 13.9216C27.8536 13.9216 28.3739 14.0798 28.5892 14.522L29.0187 12.506L30.1623 12.4795L29.013 18.1412L27.9106 18.1677L27.961 17.7425C27.816 17.9436 27.6111 18.0939 27.3661 18.1812C27.1925 18.2449 26.9992 18.2785 26.7902 18.2785C25.8207 18.2785 25.2167 17.6502 25.2167 16.6382C25.2167 15.9261 25.4135 15.2634 25.7668 14.7746C26.153 14.24 26.7058 13.9452 27.3661 13.923ZM28.0002 11.6443C27.5373 11.6443 27.1102 11.542 26.7989 11.3566C26.41 11.124 26.2053 10.7634 26.2053 10.311V10.1078H27.3285V10.2788C27.3285 10.6274 27.7229 10.8091 28.1132 10.8091C28.2745 10.8091 28.7998 10.7762 28.7998 10.3432C28.7998 10.0862 28.6747 10.0019 28.4147 9.91741L27.5408 9.63405C26.9581 9.44437 26.6204 9.20388 26.6204 8.53619C26.6204 7.60076 27.5593 7.18062 28.4891 7.18062C29.1566 7.18062 29.618 7.32098 29.9008 7.61007C30.1196 7.83331 30.2263 8.14753 30.2206 8.5462V8.58047H29.0962L29.0954 8.5462C29.0868 8.19411 28.8835 8.01586 28.4891 8.01586C28.187 8.01586 27.826 8.081 27.826 8.3916C27.826 8.53328 27.9083 8.64992 28.3228 8.77877L28.8929 8.96412C29.47 9.1559 30.0037 9.43796 30.0037 10.1907C30.0037 10.6732 29.7815 11.0624 29.3599 11.3158C29.0108 11.527 28.5282 11.6443 28.0002 11.6443ZM21.0989 11.532H19.8937L19.9019 11.489L20.4057 9.0457C20.44 8.92194 20.4776 8.65281 20.4776 8.5462C20.4776 8.31425 20.2099 8.15252 19.9675 8.15252C19.1606 8.15252 18.9097 8.94549 18.8387 9.28615L18.376 11.504L18.3702 11.532H17.1626L17.1718 11.489L18.0362 7.3202L18.0418 7.29376H19.2005L19.1912 7.33601L19.0874 7.80767C19.4543 7.39104 19.9269 7.18062 20.4955 7.18062C21.2981 7.18062 21.7393 7.59073 21.7393 8.33508C21.7393 8.45453 21.6982 8.6979 21.6179 9.06073L21.106 11.504L21.0989 11.532ZM9.15192 8.96693L8.8299 10.4799H10.3653C10.9609 10.4799 11.3163 10.1457 11.3163 9.58676C11.3163 9.01493 10.8216 8.96693 10.3575 8.96693H9.15192ZM9.60901 6.75559L9.34171 8.03591H10.7256C11.1322 8.03591 11.5409 7.81186 11.5409 7.31239C11.5409 6.93303 11.3405 6.75559 10.9104 6.75559H9.60901ZM7.37071 11.532L8.53782 5.73077L10.0731 5.70492H10.9737C11.6276 5.70492 12.0527 5.7887 12.3505 5.97195C12.6966 6.18877 12.8665 6.55159 12.8665 7.08553C12.8665 7.42259 12.762 7.74323 12.5744 7.99151C12.3967 8.22559 12.1544 8.38159 11.8722 8.4417C12.3498 8.61342 12.6426 9.05209 12.6426 9.60958C12.6426 10.2044 12.408 10.7039 11.9653 11.0489C11.5679 11.3594 11.0192 11.532 10.4214 11.532H7.37071ZM25.1156 8.93046C25.1101 8.54191 25.0126 8.11316 24.3801 8.11316C24.3203 8.11316 24.2642 8.11534 24.2073 8.12317C23.7893 8.1805 23.4846 8.45172 23.2988 8.93046H25.1156ZM24.2073 7.18352L24.3159 7.18062C24.9052 7.18062 25.397 7.34245 25.7363 7.64725C26.0967 7.97077 26.2805 8.4395 26.2805 9.03718C26.2805 9.25609 26.2573 9.48515 26.2161 9.69696L24.2073 9.72423H23.1624L23.1567 9.93384C23.1567 10.4298 23.4765 10.7133 24.0359 10.7133C24.0965 10.7133 24.1553 10.7075 24.2073 10.6974C24.5293 10.6316 24.7113 10.3883 24.857 10.155L26.0225 10.1414H26.0723L26.054 10.1864C25.7007 11.104 25.139 11.5484 24.2073 11.6307C24.1014 11.6393 23.991 11.6443 23.8761 11.6443C22.7005 11.6443 21.9995 10.9508 21.9995 9.78714C21.9995 9.10651 22.2193 8.46384 22.6193 7.97939C23.0233 7.49274 23.584 7.21289 24.2073 7.18352ZM14.9172 9.01133L14.962 9.00712C15.687 8.93406 16.0175 8.9018 16.0175 8.4889C16.0175 8.05023 15.4923 8.01586 15.3302 8.01586C15.1738 8.01586 15.0344 8.04232 14.9165 8.09532C14.7032 8.18982 14.5639 8.36435 14.5234 8.59912L13.4246 8.62776C13.4593 8.09101 13.6947 7.721 14.0912 7.482C14.3187 7.34453 14.5952 7.25437 14.9165 7.21078C15.0636 7.19215 15.2214 7.18062 15.3863 7.18062C16.1006 7.18062 16.6047 7.32811 16.8861 7.61579C17.0532 7.7868 17.1392 8.00793 17.1427 8.27276C17.1434 8.46675 17.1136 8.6979 17.0539 9.01853L16.6864 10.6974C16.6473 10.8363 16.6302 11.0825 16.6302 11.2557C16.6302 11.3252 16.6459 11.4174 16.6679 11.4854L16.6843 11.532H15.4994L15.4645 11.1706C15.3153 11.3209 15.1283 11.4382 14.9165 11.5205C14.7061 11.6007 14.4723 11.6443 14.2334 11.6443C13.2809 11.6443 12.8538 11.0754 12.8538 10.5143C12.8538 9.7163 13.443 9.18746 14.4694 9.06073L14.9172 9.01133ZM14.9549 10.7776C15.4304 10.6724 15.5726 10.281 15.6828 9.89095L15.7744 9.5638C15.522 9.68764 15.2399 9.70839 14.9641 9.72633L14.8695 9.73346C14.3841 9.78714 14.0586 9.91741 14.0586 10.3761C14.0586 10.6967 14.377 10.8091 14.6499 10.8091C14.7487 10.8091 14.8753 10.7969 14.9549 10.7776Z" fill="#194084"></path>
</g></svg>