<svg xmlns="http://www.w3.org/2000/svg" viewBox="0.16393999755382538 0 36.99995803833008 24"><g xmlns="http://www.w3.org/2000/svg" clip-path="url(#clip0_2882_270)">
<path d="M0.16394 4C0.16394 1.79086 1.9548 0 4.16394 0H33.1639C35.3731 0 37.1639 1.79086 37.1639 4V20C37.1639 22.2091 35.3731 24 33.1639 24H4.16394C1.9548 24 0.16394 22.2091 0.16394 20V4Z" fill="white"></path>
<path d="M0.16394 1.57377C0.16394 0.704601 0.868853 0 1.73841 0H35.5895C36.459 0 37.1639 0.704601 37.1639 1.57377V22.4262C37.1639 23.2953 36.459 24 35.5895 24H1.73841C0.868853 24 0.16394 23.2953 0.16394 22.4262V1.57377Z" fill="black"></path>
<path d="M36.3767 0.0491803H0.951174C0.54357 0.0491803 0.213143 0.379462 0.213143 0.786885V23.2131C0.213143 23.6205 0.54357 23.9508 0.951174 23.9508H36.3767C36.7843 23.9508 37.1147 23.6205 37.1147 23.2131V0.786885C37.1147 0.379462 36.7843 0.0491803 36.3767 0.0491803Z" fill="#00538A"></path>
<path fill-rule="evenodd" clip-rule="evenodd" d="M0.951174 0.0983607C0.570744 0.0983607 0.262345 0.406623 0.262345 0.786885V23.2131C0.262345 23.5934 0.570744 23.9016 0.951174 23.9016H36.3767C36.7571 23.9016 37.0655 23.5934 37.0655 23.2131V0.786885C37.0655 0.406623 36.7571 0.0983607 36.3767 0.0983607H0.951174ZM0.16394 0.786885C0.16394 0.3523 0.516397 0 0.951174 0H36.3767C36.8115 0 37.1639 0.3523 37.1639 0.786885V23.2131C37.1639 23.6477 36.8115 24 36.3767 24H0.951174C0.516397 24 0.16394 23.6477 0.16394 23.2131V0.786885Z" fill="#495057"></path>
<path d="M16.0723 19.339L15.539 17.6639L15.0186 19.339H16.0723ZM16.042 17.1113L17.2475 20.6557H16.4886L16.2458 19.9218H14.8278L14.5806 20.6557H13.8217L14.9362 17.3833C14.9926 17.2235 15.1443 17.1113 15.3135 17.1113H16.042ZM19.4807 19.7577C19.4807 20.0168 19.342 20.1031 19.0167 20.1031H18.2752V19.1361H19.0774C19.3637 19.1361 19.4807 19.2526 19.4807 19.4944V19.7577ZM18.969 17.6639C19.2336 17.6639 19.3463 17.7546 19.3463 17.9531V18.2683C19.3463 18.4755 19.2422 18.5964 18.9604 18.5964H18.2709V17.6639H18.969ZM19.6455 18.808C19.9361 18.6914 20.0705 18.5274 20.0705 18.2338V17.8668C20.0705 17.3876 19.7799 17.1113 19.0558 17.1113H17.551V20.6557H19.1555C19.8493 20.6557 20.2006 20.3406 20.2006 19.8441V19.4642C20.2006 19.1188 19.9967 18.877 19.6455 18.808ZM12.5122 17.6121C12.0612 17.625 11.9094 17.7848 11.9094 18.1474V19.5074C11.9094 19.87 12.0612 20.0298 12.5122 20.0428V20.0471H13.1583C13.3534 20.0471 13.5095 20.2025 13.5095 20.3967V20.6557H12.5122V20.6514C11.5842 20.6428 11.1852 20.2672 11.1852 19.6239V18.0265C11.1852 17.3833 11.5842 17.0077 12.5122 16.999H13.1973C13.3924 16.999 13.5486 17.1545 13.5486 17.3487V17.6034C13.5486 17.6034 12.9169 17.6121 12.5122 17.6121ZM26.3279 20.0642V20.6557H24.0339V17.4567C24.0339 17.2365 24.2118 17.0595 24.433 17.0595H24.7538V20.0642H26.3279ZM22.6029 19.339L22.0695 17.6639L21.5492 19.339H22.6029ZM22.5769 17.1113L23.7823 20.6557H23.0236L22.7808 19.9218H21.3628L21.1156 20.6557H20.3567L21.4364 17.4826C21.5102 17.2624 21.7227 17.1113 21.9567 17.1113H22.5769Z" fill="white"></path>
<path d="M19.2916 3.35317L19.2825 3.34426H19.2916V3.35317L24.8002 8.76675C25.1082 9.06598 25.1082 9.56469 24.8002 9.86392L19.2916 15.2864V12.2578L21.8827 9.7007C22.1002 9.49216 22.1002 9.14758 21.8827 8.92995L19.2916 6.3638V3.35317Z" fill="white"></path>
<path d="M15.6765 8.92995L18.2677 6.3638H18.2768V3.34426L12.7591 8.76675C12.4511 9.06598 12.4511 9.56469 12.7591 9.86392L18.2677 15.2864V12.2578L15.6765 9.7007C15.4591 9.48309 15.4591 9.13851 15.6765 8.92995Z" fill="white"></path>
</g></svg>