<svg xmlns="http://www.w3.org/2000/svg" viewBox="0.13116496801376343 0 37.00003433227539 24"><g xmlns="http://www.w3.org/2000/svg" clip-path="url(#clip0_2882_272)">
<path d="M0.131165 4C0.131165 1.79086 1.92203 0 4.13116 0H33.1312C35.3403 0 37.1312 1.79086 37.1312 4V20C37.1312 22.2091 35.3403 24 33.1312 24H4.13116C1.92203 24 0.131165 22.2091 0.131165 20V4Z" fill="white"></path>
<path d="M36.3439 0.0491803H0.918399C0.510794 0.0491803 0.180367 0.379462 0.180367 0.786885V23.2131C0.180367 23.6205 0.510794 23.9508 0.918399 23.9508H36.3439C36.7515 23.9508 37.082 23.6205 37.082 23.2131V0.786885C37.082 0.379462 36.7515 0.0491803 36.3439 0.0491803Z" fill="black"></path>
<path fill-rule="evenodd" clip-rule="evenodd" d="M0.918399 0.0983607C0.537968 0.0983607 0.229569 0.406623 0.229569 0.786885V23.2131C0.229569 23.5934 0.537968 23.9016 0.918399 23.9016H36.3439C36.7244 23.9016 37.0328 23.5934 37.0328 23.2131V0.786885C37.0328 0.406623 36.7244 0.0983607 36.3439 0.0983607H0.918399ZM0.131165 0.786885C0.131165 0.3523 0.483621 0 0.918399 0H36.3439C36.7787 0 37.1312 0.3523 37.1312 0.786885V23.2131C37.1312 23.6477 36.7787 24 36.3439 24H0.918399C0.483621 24 0.131165 23.6477 0.131165 23.2131V0.786885Z" fill="#495057"></path>
<path fill-rule="evenodd" clip-rule="evenodd" d="M25.3343 18.5164L25.3223 18.3185L24.8779 18.3153L24.8737 19.9711L25.3207 19.9802C25.365 19.5716 25.1678 18.7249 25.6452 18.6904C25.931 18.6697 25.9753 18.898 25.9751 19.1588C25.9749 19.3987 25.9532 19.755 25.9818 19.981L26.4169 19.9816C26.4681 19.5952 26.2681 18.7228 26.7338 18.6905C27.2531 18.6546 27.0075 19.6064 27.0683 19.982L27.5029 19.981C27.5381 19.6566 27.5491 18.7627 27.4013 18.5382C27.2966 18.379 27.1274 18.2747 26.8733 18.2839C26.5972 18.2939 26.4769 18.449 26.325 18.5449C26.2528 18.4175 26.0853 18.2873 25.8558 18.2833C25.5907 18.2787 25.4699 18.4087 25.3343 18.5164Z" fill="white"></path>
<path fill-rule="evenodd" clip-rule="evenodd" d="M16.0506 19.3013C15.8768 19.8435 15.0213 19.6252 15.2303 18.982C15.4113 18.4246 16.2373 18.7189 16.0506 19.3013ZM16.0474 18.4905C15.944 18.4376 15.6307 18.1102 15.1747 18.3782C14.4284 18.8169 14.6802 20.1146 15.6702 19.9961C15.8861 19.9704 15.9422 19.8785 16.0672 19.801L16.0706 19.9715L16.4972 19.9772L16.4967 17.4647L16.057 17.4638L16.0474 18.4905Z" fill="white"></path>
<path fill-rule="evenodd" clip-rule="evenodd" d="M13.3203 18.9733C13.351 18.5913 13.9897 18.5737 14.0304 18.973L13.3203 18.9733ZM14.4103 19.7038C14.3497 19.6303 14.2078 19.4827 14.1293 19.4387C13.9754 19.5236 13.9562 19.6454 13.655 19.6112C13.4812 19.5915 13.3428 19.455 13.3134 19.2928L14.472 19.2924C14.7026 18.2875 13.2714 17.8831 12.9018 18.7856C12.7544 19.1455 12.8331 19.6552 13.2347 19.8881C13.6295 20.1169 14.2049 19.9906 14.4103 19.7038Z" fill="white"></path>
<path fill-rule="evenodd" clip-rule="evenodd" d="M23.3613 18.9733C23.377 18.5927 24.0273 18.5665 24.0692 18.9724L23.3613 18.9733ZM24.4408 19.7038C24.3988 19.6288 24.2367 19.4922 24.1672 19.4306C24.0713 19.5342 23.9344 19.627 23.7226 19.6138C23.5307 19.6019 23.3866 19.4673 23.3528 19.2928C23.6655 19.2928 23.9802 19.2895 24.2928 19.2932C24.5232 19.2959 24.5342 19.3334 24.5238 19.0881C24.4921 18.3526 23.7141 18.0722 23.1719 18.4654C22.8356 18.7095 22.7514 19.463 23.1078 19.7744C23.5514 20.162 24.2678 20.0024 24.4408 19.7038Z" fill="white"></path>
<path fill-rule="evenodd" clip-rule="evenodd" d="M18.6431 20.6557L19.0804 20.6544C19.1979 20.4724 19.444 19.7384 19.5323 19.4922C19.6018 19.2983 19.9708 18.4508 19.9718 18.3145L19.5305 18.3141C19.4728 18.4032 19.3804 18.7056 19.3362 18.8232C19.2984 18.924 19.2058 19.2827 19.1278 19.3171C18.9765 19.0395 18.8736 18.5711 18.7196 18.3145L18.2794 18.3134C18.2828 18.4304 18.6693 19.2621 18.7452 19.446C18.7871 19.5474 18.8175 19.6288 18.8633 19.7317C18.9955 20.0288 18.761 20.1256 18.6431 20.6557Z" fill="white"></path>
<path fill-rule="evenodd" clip-rule="evenodd" d="M11.3622 19.7339C11.3281 19.6699 11.1463 19.5188 11.0734 19.451C10.9357 19.5107 10.8185 19.6887 10.5224 19.59C10.3684 19.5388 10.2257 19.3594 10.2246 19.1593C10.2217 18.6528 10.8247 18.5479 11.0447 18.8541C11.128 18.8167 11.3103 18.6614 11.3567 18.5913C10.826 18.0495 9.80395 18.2386 9.77541 19.1119C9.74693 19.9851 10.6877 20.2828 11.3622 19.7339Z" fill="white"></path>
<path fill-rule="evenodd" clip-rule="evenodd" d="M17.0176 19.464C16.9684 19.5781 16.8673 19.6634 16.832 19.7748C17.1311 20.085 17.9385 20.0992 18.1043 19.7005C18.231 19.3955 18.0832 19.1857 17.8761 19.0837C17.5567 18.9265 17.306 18.9241 17.3255 18.7041C17.574 18.5668 17.6973 18.7128 17.8722 18.8015C17.9413 18.7478 18.0508 18.5921 18.0852 18.4962C17.92 18.317 17.5078 18.2242 17.2279 18.3266C16.9558 18.4261 16.7635 18.7459 16.9585 19.0538C17.1337 19.3303 17.5717 19.3167 17.6724 19.4556C17.7882 19.6154 17.5503 19.6703 17.4011 19.6495C17.2011 19.6217 17.1485 19.5327 17.0176 19.464Z" fill="white"></path>
<path fill-rule="evenodd" clip-rule="evenodd" d="M20.3123 19.4706L20.0931 19.7729C20.4194 20.0475 21.208 20.1429 21.3845 19.6857C21.5024 19.3808 21.352 19.1908 21.1641 19.0884C20.9694 18.9821 20.5817 18.9008 20.5969 18.7566C20.7136 18.4953 21.0415 18.7511 21.1651 18.801C21.2245 18.7295 21.3339 18.5754 21.3597 18.4962C20.8173 17.9893 19.8671 18.4606 20.2241 19.0348C20.4101 19.3342 20.8061 19.3017 20.9405 19.4324C21.1033 19.5911 20.8535 19.6714 20.6933 19.6517C20.4865 19.6261 20.4546 19.5308 20.3123 19.4706Z" fill="white"></path>
<path fill-rule="evenodd" clip-rule="evenodd" d="M21.8143 17.7653L21.8071 18.3117L21.6254 18.3149L21.6152 18.6798L21.8069 18.6846C21.8147 18.9618 21.763 19.5667 21.8718 19.7786C22.0261 20.0786 22.4109 20.0288 22.7258 19.9121L22.6167 19.5628C22.4988 19.591 22.277 19.7044 22.2599 19.4179L22.2605 18.691L22.7094 18.6817L22.7159 18.3208L22.2703 18.3163L22.2581 17.7288L21.8143 17.7653Z" fill="white"></path>
<path fill-rule="evenodd" clip-rule="evenodd" d="M12.1406 18.5442L12.1303 18.3163L11.6968 18.3131L11.6849 19.9804L12.1274 19.9796C12.1745 19.6227 12.0194 19.045 12.2958 18.8425C12.3997 18.7664 12.5269 18.7776 12.6729 18.7692L12.6787 18.2895C12.3994 18.2623 12.2542 18.4365 12.1406 18.5442Z" fill="white"></path>
<path fill-rule="evenodd" clip-rule="evenodd" d="M18.6488 13.1845C18.5854 10.5702 18.9108 11.2678 17.9596 11.0438C15.9876 10.5796 14.9433 8.05418 16.6379 6.24509C17.0815 5.77151 17.7325 5.47283 18.642 5.41493L18.6463 3.36026C16.8535 3.17152 14.8235 4.68464 14.1706 6.21476C13.2727 8.31889 13.7724 10.252 15.159 11.7623C15.7621 12.4193 17.2606 13.2725 18.6488 13.1845Z" fill="white"></path>
<path fill-rule="evenodd" clip-rule="evenodd" d="M18.668 15.2594C18.7314 12.6451 18.4059 13.3426 19.3572 13.1187C21.329 12.6545 22.3733 10.1291 20.6788 8.32001C20.2352 7.84645 19.5843 7.54772 18.6747 7.48989L18.6705 5.43513C20.4633 5.24648 22.4933 6.75954 23.1462 8.28966C24.0442 10.3938 23.5443 12.3269 22.1578 13.8372C21.5546 14.4942 20.0561 15.3474 18.668 15.2594Z" fill="white"></path>
<path d="M18.668 15.2594C18.7314 12.6451 18.4059 13.3426 19.3572 13.1187C21.329 12.6545 22.3733 10.1291 20.6788 8.32001C20.2352 7.84645 19.5843 7.54772 18.6747 7.48989L18.6705 5.43513C20.4633 5.24648 22.4933 6.75954 23.1462 8.28966C24.0442 10.3938 23.5443 12.3269 22.1578 13.8372C21.5546 14.4942 20.0561 15.3474 18.668 15.2594Z" fill="url(#paint0_linear_2882_272)"></path>
</g></svg>