<svg xmlns="http://www.w3.org/2000/svg" viewBox="0.11474599689245224 0 36.99995422363281 24"><g xmlns="http://www.w3.org/2000/svg" clip-path="url(#clip0_2882_273)">
<path d="M0.114746 4C0.114746 1.79086 1.90561 0 4.11475 0H33.1147C35.3239 0 37.1147 1.79086 37.1147 4V20C37.1147 22.2091 35.3239 24 33.1147 24H4.11475C1.90561 24 0.114746 22.2091 0.114746 20V4Z" fill="white"></path>
<path d="M0.114746 1.57377C0.114746 0.704601 0.819659 0 1.68921 0H35.5403C36.4098 0 37.1147 0.704601 37.1147 1.57377V22.4262C37.1147 23.2953 36.4098 24 35.5403 24H1.68921C0.819659 24 0.114746 23.2953 0.114746 22.4262V1.57377Z" fill="black"></path>
<path d="M36.3275 0.0491803H0.90198C0.494376 0.0491803 0.163948 0.379462 0.163948 0.786885V23.2131C0.163948 23.6205 0.494376 23.9508 0.90198 23.9508H36.3275C36.7351 23.9508 37.0655 23.6205 37.0655 23.2131V0.786885C37.0655 0.379462 36.7351 0.0491803 36.3275 0.0491803Z" fill="#041C2C"></path>
<path fill-rule="evenodd" clip-rule="evenodd" d="M0.90198 0.0983607C0.521549 0.0983607 0.21315 0.406623 0.21315 0.786885V23.2131C0.21315 23.5934 0.521549 23.9016 0.90198 23.9016H36.3275C36.7079 23.9016 37.0163 23.5934 37.0163 23.2131V0.786885C37.0163 0.406623 36.7079 0.0983607 36.3275 0.0983607H0.90198ZM0.114746 0.786885C0.114746 0.3523 0.467203 0 0.90198 0H36.3275C36.7623 0 37.1147 0.3523 37.1147 0.786885V23.2131C37.1147 23.6477 36.7623 24 36.3275 24H0.90198C0.467203 24 0.114746 23.6477 0.114746 23.2131V0.786885Z" fill="#495057"></path>
<path d="M17.0249 14.5413C16.5595 14.8217 16.0113 14.9837 15.427 14.9837C13.7255 14.9837 12.3448 13.6103 12.3448 11.9181C12.3448 10.2258 13.7255 8.85246 15.427 8.85246C16.045 8.85246 16.619 9.03248 17.1 9.34367L16.4277 10.0046C16.1277 9.85033 15.789 9.76031 15.427 9.76031C14.2298 9.76031 13.2576 10.7248 13.2576 11.9181C13.2576 13.1114 14.2272 14.0758 15.427 14.0758C15.745 14.0758 16.0476 14.0064 16.3191 13.8855L17.0249 14.5413ZM19.4762 10.771C18.4962 10.771 17.6998 11.5709 17.6869 12.5636V14.9245H18.504V12.5713C18.504 12.0261 18.941 11.5837 19.4762 11.5837C19.6727 11.5837 19.8692 11.6429 20.0217 11.7432L20.6192 11.1568C20.3089 10.8971 19.9105 10.771 19.4762 10.771ZM33.5608 10.8328H30.5354V11.6455H32.6557L30.3804 14.2584C30.1526 14.5182 30.339 14.9245 30.6852 14.9245H33.9642V14.1118H31.5903L33.8658 11.4989C34.0933 11.2391 33.9074 10.8328 33.5608 10.8328ZM24.7847 12.9108C24.7796 13.0625 24.6554 13.1834 24.5029 13.1834H21.63C21.7672 13.7518 22.2817 14.2147 22.8971 14.2147C23.2411 14.2147 23.6133 14.0964 23.8461 13.8804L24.384 14.3819C23.9831 14.7728 23.4297 15.0068 22.8196 14.9863C21.6897 14.9451 20.782 14.0141 20.7769 12.8902C20.7718 11.72 21.7233 10.771 22.8971 10.771C24.0555 10.771 24.8235 11.702 24.7847 12.9108ZM21.63 12.5687H23.9288C23.7894 12.003 23.5048 11.5837 22.8945 11.5837C22.2844 11.5837 21.7698 12.003 21.63 12.5687ZM29.6407 8.85504V12.97H29.6382C29.5892 14.0913 28.6608 14.9863 27.5205 14.9863C26.3489 14.9863 25.4001 14.0424 25.4001 12.8774C25.4001 11.7123 26.3489 10.7685 27.5205 10.7685C28.0118 10.7685 28.4642 10.9356 28.8236 11.2134V8.85504H29.6407ZM28.8236 12.8799C28.8236 12.165 28.2393 11.5837 27.5205 11.5837C26.8016 11.5837 26.2173 12.165 26.2173 12.8799C26.2173 13.5949 26.8016 14.1761 27.5205 14.1761C28.2393 14.1736 28.8236 13.5949 28.8236 12.8799Z" fill="white"></path>
<path d="M3.33091 8.85504H6.02784C7.29483 8.85504 7.92834 10.3776 7.03367 11.27L3.37746 14.904C3.33607 14.9451 3.26368 14.9168 3.26368 14.8577V8.91932C3.26368 8.88332 3.2947 8.85504 3.33091 8.85504ZM10.7132 14.8577V8.9219C10.7132 8.86275 10.6408 8.83188 10.5994 8.87561L6.94317 12.5096C6.0485 13.3994 6.68201 14.9245 7.94902 14.9245H10.6459C10.6821 14.9245 10.7132 14.8937 10.7132 14.8577Z" fill="white"></path>
</g></svg>