<svg xmlns="http://www.w3.org/2000/svg" viewBox="0 0 37 24.0492000579834"><g xmlns="http://www.w3.org/2000/svg" clip-path="url(#clip0_2882_258)">
<path d="M0 4C0 1.79086 1.79086 0 4 0H33C35.2091 0 37 1.79086 37 4V20C37 22.2091 35.2091 24 33 24H4C1.79086 24 0 22.2091 0 20V4Z" fill="white"></path>
<path d="M36.26 0.0491791H0.74C0.331309 0.0491791 0 0.38082 0 0.78992V23.3084C0 23.7175 0.331309 24.0492 0.74 24.0492H36.26C36.6687 24.0492 37 23.7175 37 23.3084V0.78992C37 0.38082 36.6687 0.0491791 36.26 0.0491791Z" fill="#004C97"></path>
<path d="M7.4537 16.9871C7.4537 17.3854 7.73591 17.4314 7.98682 17.4314C9.09415 17.4314 9.4573 16.5895 9.4573 15.8193C9.4573 14.8535 8.84263 14.1559 7.85358 14.1559C7.64336 14.1559 7.54651 14.1707 7.4537 14.1763V16.9871ZM6.9518 14.5634C6.9518 14.0987 6.71068 14.1293 6.48057 14.1241V13.9906C6.68 13.9999 6.88503 13.9999 7.08508 13.9999C7.30018 13.9999 7.59249 13.9906 7.97184 13.9906C9.29855 13.9906 10.0213 14.8838 10.0213 15.7989C10.0213 16.3105 9.72444 17.597 7.91025 17.597C7.64948 17.597 7.40774 17.5871 7.16723 17.5871C6.93649 17.5871 6.71068 17.5924 6.48057 17.597V17.4623C6.78725 17.4314 6.93649 17.4212 6.9518 17.07V14.5634Z" fill="#FEFEFE"></path>
<path d="M10.7497 14.44C10.6158 14.44 10.4982 14.3157 10.4982 14.1817C10.4982 14.0522 10.6211 13.933 10.7497 13.933C10.8824 13.933 11.001 14.0417 11.001 14.1817C11.001 14.321 10.8879 14.44 10.7497 14.44ZM10.201 17.4624H10.2984C10.4418 17.4624 10.5441 17.4624 10.5441 17.2913V15.8917C10.5441 15.6644 10.4678 15.6332 10.2775 15.5305V15.4478C10.5187 15.3748 10.8055 15.2775 10.8263 15.2612C10.8622 15.241 10.8925 15.2358 10.9186 15.2358C10.944 15.2358 10.9541 15.2664 10.9541 15.3078V17.2913C10.9541 17.4624 11.0675 17.4624 11.2102 17.4624H11.2976V17.5971C11.1232 17.5971 10.944 17.5869 10.7596 17.5869C10.5751 17.5869 10.3906 17.5922 10.201 17.5971V17.4624Z" fill="#FEFEFE"></path>
<path d="M11.7845 15.9224C11.7845 15.7318 11.7281 15.6799 11.4876 15.5823V15.4835C11.7076 15.4112 11.9175 15.3435 12.1639 15.2356C12.1792 15.2356 12.1941 15.2459 12.1941 15.2866V15.6234C12.4868 15.4112 12.7381 15.2356 13.0815 15.2356C13.5169 15.2356 13.6707 15.5557 13.6707 15.9589V17.2914C13.6707 17.4626 13.7838 17.4626 13.9269 17.4626H14.0191V17.597C13.8393 17.597 13.66 17.5871 13.4761 17.5871C13.2914 17.5871 13.1069 17.5923 12.9225 17.597V17.4626H13.0147C13.1585 17.4626 13.2602 17.4626 13.2602 17.2914V15.954C13.2602 15.6589 13.0815 15.5146 12.7889 15.5146C12.625 15.5146 12.3639 15.6487 12.1941 15.7627V17.2914C12.1941 17.4626 12.3078 17.4626 12.4512 17.4626H12.5435V17.597C12.3639 17.597 12.1841 17.5871 11.9993 17.5871C11.8154 17.5871 11.6308 17.5923 11.4462 17.597V17.4626H11.5391C11.6822 17.4626 11.7845 17.4626 11.7845 17.2914V15.9224Z" fill="#FEFEFE"></path>
<path d="M15.3163 16.0053C15.4437 16.0053 15.4587 15.9383 15.4587 15.8765C15.4587 15.6123 15.3 15.4007 15.0132 15.4007C14.7009 15.4007 14.4856 15.633 14.424 16.0053H15.3163ZM14.409 16.1712C14.3983 16.2176 14.3983 16.2948 14.409 16.4705C14.439 16.9618 14.7521 17.3647 15.1618 17.3647C15.4437 17.3647 15.6649 17.2093 15.8539 17.0184L15.9257 17.0906C15.6898 17.4058 15.3981 17.6742 14.978 17.6742C14.1626 17.6742 13.999 16.8787 13.999 16.5481C13.999 15.5354 14.6753 15.2357 15.0334 15.2357C15.4489 15.2357 15.8953 15.499 15.8999 16.0464C15.8999 16.0783 15.8999 16.1088 15.8953 16.14L15.8484 16.1712H14.409Z" fill="#FEFEFE"></path>
<path d="M16.0177 17.4624H16.1565C16.2998 17.4624 16.4016 17.4624 16.4016 17.2913V15.8398C16.4016 15.6802 16.2126 15.6489 16.1357 15.6072V15.5306C16.5093 15.3699 16.7151 15.2358 16.7613 15.2358C16.7917 15.2358 16.807 15.2507 16.807 15.3029V15.7675H16.818C16.9454 15.5664 17.1608 15.2358 17.4734 15.2358C17.6015 15.2358 17.7651 15.323 17.7651 15.5093C17.7651 15.6489 17.6686 15.7734 17.5246 15.7734C17.3652 15.7734 17.3652 15.6489 17.1863 15.6489C17.0993 15.6489 16.8122 15.7675 16.8122 16.0783V17.2913C16.8122 17.4624 16.9145 17.4624 17.058 17.4624H17.345V17.5972C17.0632 17.5923 16.8483 17.5869 16.628 17.5869C16.4175 17.5869 16.2025 17.5923 16.0177 17.5972V17.4624Z" fill="#FEFEFE"></path>
<path d="M17.9905 16.8788C18.0576 17.2196 18.2626 17.5093 18.6367 17.5093C18.9388 17.5093 19.051 17.3231 19.051 17.1423C19.051 16.5328 17.9347 16.7283 17.9347 15.897C17.9347 15.6072 18.1654 15.2358 18.7292 15.2358C18.8928 15.2358 19.1132 15.2821 19.313 15.3854L19.3491 15.9124H19.2314C19.1803 15.5871 19.0003 15.4005 18.6725 15.4005C18.4673 15.4005 18.273 15.5197 18.273 15.7419C18.273 16.3468 19.4616 16.1605 19.4616 16.9718C19.4616 17.3125 19.19 17.6743 18.5806 17.6743C18.3747 17.6743 18.1342 17.6024 17.9549 17.4992L17.8986 16.9047L17.9905 16.8788Z" fill="#FEFEFE"></path>
<path d="M24.0889 14.9253H23.961C23.8637 14.321 23.4383 14.0782 22.8648 14.0782C22.275 14.0782 21.4185 14.4758 21.4185 15.7153C21.4185 16.7599 22.1582 17.5093 22.9463 17.5093C23.4538 17.5093 23.8742 17.1581 23.9768 16.6152L24.0944 16.6459L23.9768 17.4006C23.7613 17.5353 23.1817 17.6743 22.8433 17.6743C21.6445 17.6743 20.8867 16.8943 20.8867 15.7317C20.8867 14.6723 21.8239 13.9125 22.8287 13.9125C23.2439 13.9125 23.6431 14.047 24.0378 14.1863L24.0889 14.9253Z" fill="#FEFEFE"></path>
<path d="M24.2734 17.4624H24.3712C24.5149 17.4624 24.6175 17.4624 24.6175 17.2912V14.4147C24.6175 14.0782 24.5406 14.0677 24.3458 14.0112V13.9284C24.5504 13.8611 24.7659 13.7688 24.8737 13.7059C24.9297 13.675 24.9709 13.6487 24.9861 13.6487C25.0173 13.6487 25.0272 13.68 25.0272 13.7216V17.2912C25.0272 17.4624 25.1403 17.4624 25.2837 17.4624H25.3705V17.5972C25.1973 17.5972 25.0173 17.5869 24.8322 17.5869C24.6483 17.5869 24.464 17.5923 24.2734 17.5972V17.4624Z" fill="#FEFEFE"></path>
<path d="M27.5645 17.3125C27.5645 17.4061 27.6201 17.4107 27.7078 17.4107C27.7687 17.4107 27.8463 17.4061 27.9132 17.4061V17.5148C27.6918 17.5353 27.2722 17.6437 27.1742 17.6746L27.1489 17.6591V17.2411C26.8421 17.4941 26.6055 17.6746 26.2412 17.6746C25.9647 17.6746 25.6782 17.4941 25.6782 17.0604V15.7372C25.6782 15.6024 25.6575 15.473 25.3713 15.4477V15.3494C25.5558 15.3438 25.9647 15.3136 26.0318 15.3136C26.0888 15.3136 26.0888 15.3494 26.0888 15.4631V16.7959C26.0888 16.9507 26.0888 17.3953 26.5344 17.3953C26.7079 17.3953 26.9387 17.2606 27.154 17.0811V15.6899C27.154 15.587 26.9082 15.5304 26.7239 15.4783V15.3853C27.185 15.354 27.4725 15.3136 27.5235 15.3136C27.5645 15.3136 27.5645 15.3494 27.5645 15.4066V17.3125Z" fill="#FEFEFE"></path>
<path d="M28.5837 17.0131C28.5837 17.2095 28.7682 17.5401 29.112 17.5401C29.6608 17.5401 29.8913 16.9972 29.8913 16.5372C29.8913 15.9796 29.4709 15.5146 29.0713 15.5146C28.8807 15.5146 28.7223 15.6388 28.5837 15.7581V17.0131ZM28.5837 15.6073C28.7886 15.4321 29.0662 15.2359 29.3478 15.2359C29.9422 15.2359 30.3007 15.7581 30.3007 16.3207C30.3007 16.9972 29.809 17.6745 29.0755 17.6745C28.6964 17.6745 28.4971 17.5506 28.3633 17.4941L28.2098 17.6124L28.1026 17.5558C28.1476 17.2513 28.1737 16.9509 28.1737 16.6361V14.4147C28.1737 14.0783 28.0973 14.0675 27.9023 14.011V13.9282C28.108 13.8611 28.3225 13.7688 28.4302 13.7057C28.4862 13.6751 28.5275 13.6489 28.5433 13.6489C28.5739 13.6489 28.5837 13.6801 28.5837 13.7218V15.6073Z" fill="#FEFEFE"></path>
<path d="M6.47479 20.6011H6.51376C6.61395 20.6011 6.72027 20.5878 6.72027 20.4411V18.9683C6.72027 18.8216 6.61395 18.8083 6.51376 18.8083H6.47479V18.7227C6.5839 18.7227 6.75094 18.7345 6.88785 18.7345C7.02724 18.7345 7.19429 18.7227 7.32514 18.7227V18.8083H7.28616C7.18598 18.8083 7.07968 18.8216 7.07968 18.9683V20.4411C7.07968 20.5878 7.18598 20.6011 7.28616 20.6011H7.32514V20.686C7.19148 20.686 7.02391 20.675 6.88483 20.675C6.74784 20.675 6.5839 20.686 6.47479 20.686V20.6011Z" fill="#FEFEFE"></path>
<path d="M7.31316 20.674L7.3135 20.6139H7.28652C7.18696 20.6139 7.06809 20.5965 7.06746 20.4411V18.9682C7.06809 18.8129 7.18696 18.7955 7.28652 18.7955H7.31316V18.736C7.1845 18.736 7.02304 18.7468 6.88793 18.7468C6.75558 18.7468 6.59498 18.7362 6.48712 18.736V18.7955H6.51374C6.61308 18.7955 6.73189 18.8129 6.73189 18.9682V20.4411C6.73189 20.5965 6.61308 20.6139 6.51374 20.6139H6.48712V20.674C6.59498 20.6724 6.75277 20.6625 6.88489 20.6625C7.02055 20.6625 7.18209 20.673 7.31316 20.674ZM7.32512 20.6981C7.19062 20.6981 7.02334 20.687 6.88489 20.687C6.74819 20.687 6.58427 20.6981 6.47485 20.6981H6.46265V20.5896H6.51374C6.61495 20.5871 6.70713 20.5788 6.70776 20.4411V18.9682C6.70713 18.8308 6.61495 18.8215 6.51374 18.8196H6.46265V18.7115H6.47485C6.58427 18.7115 6.75123 18.7223 6.88793 18.7223C7.02669 18.7223 7.19342 18.7115 7.32512 18.7115H7.33739V18.8196H7.28652C7.18509 18.8215 7.09232 18.8308 7.09199 18.9682V20.4411C7.09232 20.5788 7.18509 20.5871 7.28652 20.5896H7.33739V20.6981H7.32512Z" fill="#FEFEFE"></path>
<path d="M9.24113 20.1319L9.24663 20.1264V19.072C9.24663 18.8416 9.0876 18.8082 9.00364 18.8082H8.94268V18.723C9.07345 18.723 9.20223 18.7344 9.33308 18.7344C9.447 18.7344 9.56195 18.723 9.67561 18.723V18.8082H9.63455C9.5169 18.8082 9.38544 18.8302 9.38544 19.1648V20.4444C9.38544 20.5426 9.38877 20.6408 9.40258 20.7281H9.29658L7.86044 19.1144V20.2722C7.86044 20.5175 7.90767 20.6011 8.12246 20.6011H8.16961V20.686C8.05016 20.686 7.93002 20.6748 7.80991 20.6748C7.68517 20.6748 7.55649 20.686 7.43117 20.686V20.6011H7.47006C7.6625 20.6011 7.72138 20.4697 7.72138 20.2445V19.0606C7.72138 18.903 7.59237 18.8082 7.46736 18.8082H7.43117V18.723C7.5366 18.723 7.64565 18.7344 7.75132 18.7344C7.83528 18.7344 7.91653 18.723 7.99984 18.723L9.24113 20.1319Z" fill="#FEFEFE"></path>
<path d="M9.29632 20.7158H9.38887C9.3763 20.6315 9.37413 20.5375 9.37413 20.4444V19.1646C9.37413 18.8272 9.51424 18.7957 9.63427 18.7957H9.66372V18.7357C9.55366 18.7363 9.44371 18.7468 9.33312 18.7468C9.20539 18.7468 9.08091 18.7363 8.95472 18.7357V18.7957H9.0034C9.08952 18.7957 9.25833 18.834 9.25833 19.0722L9.25492 20.1351L9.24918 20.1402L9.23963 20.1491L7.99996 18.7357C7.91688 18.7357 7.83603 18.7468 7.75146 18.7468C7.64942 18.7468 7.54428 18.7363 7.44322 18.7357L7.44293 18.7957H7.4674C7.59825 18.7957 7.73305 18.8964 7.73305 19.0608V20.2445C7.73305 20.4699 7.67085 20.6131 7.4702 20.6141L7.44322 20.6131V20.674C7.56391 20.6726 7.68801 20.6623 7.80995 20.6623C7.92675 20.6623 8.04252 20.6726 8.15737 20.674V20.6141H8.12221C7.90281 20.6131 7.84823 20.5175 7.84823 20.2724V19.0827L9.29632 20.7158ZM9.40231 20.7405L9.28748 20.7362L7.87215 19.146V20.2724C7.87578 20.5175 7.9126 20.5867 8.12221 20.5896H8.18224V20.6979H8.16965C8.04929 20.6979 7.92916 20.687 7.80995 20.687C7.68553 20.687 7.55748 20.6979 7.43065 20.6979H7.4184V20.5896H7.4702C7.65463 20.5882 7.70704 20.4689 7.70944 20.2445V19.0608C7.70881 18.9112 7.5869 18.82 7.4674 18.8197H7.4184V18.7114H7.43065C7.53751 18.7114 7.64632 18.7225 7.75146 18.7225C7.83418 18.7225 7.91509 18.7114 8.00913 18.7157L9.23444 20.1063V19.0722C9.23294 18.8485 9.08525 18.8216 9.0034 18.8197H8.92985V18.7114H8.94242C9.07389 18.7114 9.20259 18.7225 9.33312 18.7225C9.4462 18.7225 9.56075 18.7114 9.67567 18.7114H9.68818V18.8197H9.63427C9.51881 18.8232 9.40116 18.8337 9.39773 19.1646V20.4444C9.39773 20.5422 9.40053 20.6404 9.41397 20.7263L9.41646 20.7405H9.40231Z" fill="#FEFEFE"></path>
<path d="M10.0932 18.8637C9.88392 18.8637 9.87622 18.9144 9.83399 19.1195H9.75064C9.76201 19.0411 9.77543 18.9622 9.78437 18.8804C9.79508 18.802 9.80082 18.7229 9.80082 18.6419H9.86802C9.89037 18.7262 9.95985 18.7229 10.0353 18.7229H11.4741C11.5492 18.7229 11.6191 18.7204 11.6249 18.636L11.6911 18.6478C11.6809 18.7229 11.6696 18.7991 11.661 18.8752C11.6552 18.9508 11.6552 19.0272 11.6552 19.1029L11.5719 19.1344C11.5664 19.0299 11.5519 18.8637 11.3653 18.8637H10.9082V20.3597C10.9082 20.5768 11.006 20.6013 11.1396 20.6013H11.1922V20.6858C11.0838 20.6858 10.8883 20.6748 10.7378 20.6748C10.5709 20.6748 10.3751 20.6858 10.2663 20.6858V20.6013H10.3194C10.4731 20.6013 10.5506 20.5876 10.5506 20.3658V18.8637H10.0932Z" fill="#FEFEFE"></path>
<path d="M11.1929 20.6979C11.0828 20.6979 10.8877 20.6868 10.7379 20.6868C10.5709 20.6868 10.3763 20.6979 10.2664 20.6979H10.2547V20.5894H10.3196C10.4735 20.5859 10.5354 20.5839 10.5384 20.3658V18.8757H10.0932V18.8519H10.5629V20.3658C10.5629 20.591 10.4729 20.6143 10.3196 20.6143H10.2785V20.6736C10.3889 20.6726 10.576 20.6625 10.7379 20.6625C10.8834 20.6625 11.0697 20.6726 11.18 20.6736V20.6143H11.1396C11.0047 20.6143 10.8957 20.5811 10.8957 20.3597V18.8519H11.3654C11.5526 18.8522 11.5772 19.0123 11.583 19.1168L11.6439 19.0942C11.6439 19.0213 11.6442 18.9478 11.6488 18.8732C11.6567 18.8016 11.6672 18.7296 11.6776 18.6576L11.6353 18.6505C11.6216 18.7321 11.5434 18.7367 11.4739 18.7358H10.0209C9.95502 18.7358 9.8839 18.7324 9.8591 18.6542H9.81251C9.81251 18.7321 9.807 18.8071 9.79597 18.8825C9.78798 18.9595 9.77578 19.0339 9.76528 19.1074H9.82478C9.8619 18.9122 9.88544 18.8486 10.0932 18.8519V18.8757C9.88729 18.88 9.89187 18.9147 9.84589 19.1226L9.84443 19.1322H9.73657L9.73835 19.1177C9.74914 19.0392 9.76382 18.9604 9.77237 18.8785C9.7834 18.8007 9.7889 18.7225 9.7889 18.6418V18.6295H9.87751L9.8793 18.6385C9.89864 18.7096 9.94981 18.7099 10.0209 18.7114H11.4739C11.5511 18.7099 11.608 18.7086 11.6126 18.635L11.6135 18.6221L11.6262 18.6246L11.7046 18.6369L11.7034 18.649C11.6923 18.7247 11.6813 18.8007 11.6733 18.8757C11.6675 18.9511 11.6675 19.0272 11.6675 19.1028V19.1114L11.6595 19.1149L11.5606 19.1513L11.5603 19.1343C11.5526 19.029 11.5416 18.8757 11.3654 18.8757H10.9202V20.3597C10.923 20.5718 11.0066 20.5867 11.1396 20.5894H11.2042V20.6979H11.1929Z" fill="#FEFEFE"></path>
<path d="M11.7807 20.6011H11.8196C11.9198 20.6011 12.0258 20.5878 12.0258 20.4411V18.9683C12.0258 18.8216 11.9198 18.8083 11.8196 18.8083H11.7807V18.7227C11.9501 18.7227 12.2412 18.7345 12.4747 18.7345C12.7094 18.7345 12.999 18.7227 13.188 18.7227C13.1834 18.8441 13.1861 19.0301 13.1944 19.1537L13.1102 19.1763C13.097 18.9937 13.0633 18.8475 12.7704 18.8475H12.3837V19.5834H12.7146C12.8822 19.5834 12.9187 19.4886 12.9349 19.3366H13.0182C13.013 19.4462 13.01 19.5556 13.01 19.6653C13.01 19.7724 13.013 19.8791 13.0182 19.9856L12.9349 20.0028C12.9187 19.8341 12.9101 19.7244 12.7174 19.7244H12.3837V20.3793C12.3837 20.5622 12.5448 20.5622 12.7228 20.5622C13.0581 20.5622 13.2055 20.5396 13.2891 20.2193L13.3669 20.239C13.3308 20.3885 13.2974 20.5365 13.2723 20.686C13.0943 20.686 12.7732 20.675 12.5222 20.675C12.2709 20.675 11.9394 20.686 11.7807 20.686V20.6011Z" fill="#FEFEFE"></path>
<path d="M13.2622 20.6736C13.286 20.5317 13.318 20.3895 13.3526 20.2481L13.2974 20.2341C13.2137 20.5489 13.0523 20.5768 12.7229 20.5744C12.547 20.5744 12.3714 20.5744 12.3705 20.3795V19.7123H12.7174C12.9123 19.7099 12.9315 19.8289 12.9454 19.9889L13.0058 19.9763C13.0008 19.8728 12.9981 19.7683 12.9981 19.6654C12.9981 19.56 13.0008 19.4547 13.0058 19.3481H12.9454C12.9301 19.4952 12.885 19.5977 12.7143 19.5959H12.3705V18.8346H12.7704C13.0606 18.8331 13.109 18.9842 13.1209 19.1602L13.181 19.1438C13.1764 19.0644 13.1737 18.9634 13.1737 18.8695C13.1737 18.8204 13.1745 18.7756 13.1758 18.7358C12.9864 18.7363 12.7039 18.7469 12.4747 18.7469C12.2458 18.7469 11.9634 18.7363 11.7927 18.7358V18.7957H11.8196C11.9192 18.7957 12.0378 18.813 12.0384 18.9681V20.4411C12.0378 20.5961 11.9192 20.6129 11.8196 20.6141H11.7927V20.6736C11.9547 20.6728 12.2774 20.6623 12.5222 20.6623C12.7682 20.6623 13.082 20.6728 13.2622 20.6736ZM13.2723 20.6979C13.0934 20.6979 12.7729 20.6864 12.5222 20.6864C12.271 20.6864 11.9401 20.6979 11.7807 20.6979H11.7685V20.5898H11.8196C11.9204 20.5878 12.0127 20.5788 12.0136 20.4411V18.9681C12.0127 18.8312 11.9204 18.8219 11.8196 18.8195H11.7685V18.7114H11.7807C11.9505 18.7114 12.2412 18.7225 12.4747 18.7225C12.7088 18.7225 12.9984 18.7114 13.188 18.7114H13.2006V18.7237C13.1981 18.766 13.1972 18.8158 13.1972 18.8695C13.1972 18.9663 13.2006 19.0725 13.2058 19.1525V19.1627L13.1969 19.1655L13.0989 19.1915L13.0986 19.1766C13.082 18.9947 13.0581 18.8618 12.7704 18.8594H12.3948V19.5711H12.7143C12.8755 19.5699 12.9037 19.4868 12.9227 19.3351L12.9239 19.3243H13.0311V19.3366C13.0253 19.4463 13.022 19.5557 13.022 19.6654C13.022 19.7716 13.0253 19.8785 13.0311 19.9858V19.9955L13.0211 19.9978L12.9239 20.017L12.9227 20.0039C12.9037 19.8325 12.9028 19.7386 12.7174 19.7364L12.3948 19.7358V20.3795C12.3951 20.5503 12.5409 20.5493 12.7229 20.5503C13.059 20.5483 13.1932 20.5318 13.2772 20.2159L13.28 20.2044L13.2919 20.207L13.3811 20.2301L13.3786 20.242C13.3425 20.3901 13.3094 20.5395 13.2843 20.6876L13.2824 20.6979H13.2723Z" fill="#FEFEFE"></path>
<path d="M14.1007 19.6735H14.2368C14.5159 19.6735 14.6663 19.5672 14.6663 19.2351C14.6663 18.9854 14.5073 18.8245 14.2592 18.8245C14.1748 18.8245 14.1393 18.8335 14.1007 18.8359V19.6735ZM13.7437 19.0213C13.7437 18.8158 13.6322 18.8081 13.5458 18.8081H13.4949V18.7229C13.5841 18.7229 13.7572 18.7343 13.9276 18.7343C14.0942 18.7343 14.2284 18.7229 14.3767 18.7229C14.7273 18.7229 15.0395 18.8186 15.0395 19.2184C15.0395 19.4712 14.8728 19.6256 14.6526 19.7137L15.1296 20.4326C15.2075 20.5519 15.2626 20.5849 15.3996 20.6013V20.6858C15.3076 20.6858 15.2185 20.6748 15.1265 20.6748C15.0395 20.6748 14.9506 20.6858 14.8643 20.6858C14.6498 20.4024 14.4653 20.0984 14.2842 19.7744H14.1007V20.3763C14.1007 20.5936 14.2005 20.6013 14.3287 20.6013H14.3795V20.6858C14.2199 20.6858 14.0584 20.6748 13.8994 20.6748C13.7658 20.6748 13.6346 20.6858 13.4949 20.6858V20.6013H13.5458C13.6482 20.6013 13.7437 20.5541 13.7437 20.4496V19.0213Z" fill="#FEFEFE"></path>
<path d="M14.2369 19.6615C14.5126 19.6588 14.652 19.5624 14.6545 19.2355C14.6533 18.9902 14.5016 18.8378 14.2589 18.8364C14.1835 18.8364 14.1483 18.8432 14.1127 18.8472V19.6615H14.2369ZM14.2369 19.6853H14.0882V18.8243L14.0986 18.8233C14.1369 18.8203 14.1743 18.8129 14.2589 18.8129C14.5126 18.8129 14.6781 18.9793 14.6787 19.2355C14.6778 19.571 14.5178 19.6853 14.2369 19.6853ZM14.0882 19.7626H14.2908L14.2941 19.7687C14.4755 20.0922 14.6591 20.3957 14.8644 20.674C14.9495 20.674 15.0393 20.6625 15.1257 20.6625C15.2149 20.6625 15.301 20.672 15.3877 20.6734V20.6116C15.2565 20.5957 15.1956 20.5562 15.1196 20.4397L14.634 19.7076L14.648 19.7017C14.8662 19.6152 15.0277 19.465 15.028 19.2178C15.0277 18.8283 14.7268 18.7371 14.3769 18.736C14.2295 18.736 14.0949 18.7468 13.9276 18.7468C13.7631 18.7468 13.5982 18.7362 13.507 18.736V18.7959H13.5456C13.632 18.7959 13.7548 18.8101 13.7548 19.0214V20.4496C13.7548 20.5628 13.6506 20.6139 13.5456 20.6139H13.507V20.6734C13.6415 20.673 13.768 20.6625 13.8988 20.6625C14.0551 20.6625 14.2123 20.673 14.3667 20.6734V20.6139H14.3288C14.2016 20.6139 14.0882 20.5983 14.0882 20.3765V19.7626ZM15.3997 20.6979C15.3062 20.6979 15.2176 20.687 15.1257 20.687C15.0411 20.687 14.9517 20.6979 14.8543 20.6937C14.641 20.4105 14.4578 20.1086 14.2773 19.7869H14.1127V20.3765C14.1155 20.588 14.1998 20.5863 14.3288 20.5896H14.3913V20.6979H14.3787C14.219 20.6979 14.0569 20.687 13.8988 20.687C13.7656 20.687 13.635 20.6979 13.4947 20.6979H13.4834V20.5896H13.5456C13.646 20.5886 13.73 20.5446 13.7309 20.4496V19.0214C13.7292 18.8221 13.632 18.8224 13.5456 18.8196H13.4834V18.7115H13.4947C13.5857 18.7115 13.7576 18.7223 13.9276 18.7223C14.0938 18.7223 14.228 18.7115 14.3769 18.7115C14.7277 18.7115 15.0516 18.81 15.0525 19.2178C15.0525 19.4719 14.8858 19.6303 14.671 19.7187L15.1392 20.4259C15.2171 20.5426 15.2655 20.572 15.4012 20.5896L15.4113 20.5906V20.6979H15.3997Z" fill="#FEFEFE"></path>
<path d="M17.2926 20.1319L17.2979 20.1264V19.072C17.2979 18.8416 17.1391 18.8082 17.0558 18.8082H16.9942V18.723C17.1257 18.723 17.2531 18.7344 17.3849 18.7344C17.4994 18.7344 17.6134 18.723 17.7281 18.723V18.8082H17.6867C17.5694 18.8082 17.4379 18.8302 17.4379 19.1648V20.4444C17.4379 20.5426 17.4404 20.6408 17.4541 20.7281H17.3487L15.9126 19.1144V20.2722C15.9126 20.5175 15.9601 20.6011 16.1749 20.6011H16.2227V20.686C16.1023 20.686 15.9822 20.6748 15.8623 20.6748C15.7368 20.6748 15.6086 20.686 15.4833 20.686V20.6011H15.5216C15.7146 20.6011 15.7729 20.4697 15.7729 20.2445V19.0606C15.7729 18.903 15.6445 18.8082 15.5195 18.8082H15.4833V18.723C15.5887 18.723 15.6984 18.7344 15.8039 18.7344C15.8872 18.7344 15.9681 18.723 16.0518 18.723L17.2926 20.1319Z" fill="#FEFEFE"></path>
<path d="M17.3488 20.7158H17.4398C17.4282 20.6317 17.4257 20.5375 17.4257 20.4444V19.1646C17.4257 18.8272 17.567 18.7963 17.6865 18.7957H17.7155V18.7357C17.6058 18.7363 17.4955 18.7468 17.3849 18.7468C17.2572 18.7468 17.1321 18.7363 17.0066 18.7357V18.7957H17.0559C17.1416 18.7963 17.3108 18.834 17.3108 19.0722L17.3068 20.1351L17.3016 20.1402L17.2927 20.1497L16.0518 18.7357C15.969 18.7357 15.8875 18.7468 15.8039 18.7468C15.7003 18.7468 15.5961 18.7363 15.495 18.7357V18.7957H15.5192C15.6504 18.7963 15.7849 18.8958 15.7849 19.0608V20.2443C15.7849 20.4699 15.7215 20.6131 15.5214 20.6141H15.495V20.6736C15.6158 20.6726 15.7399 20.6623 15.8624 20.6623C15.9788 20.6623 16.0947 20.6726 16.2102 20.6736V20.6141H16.175C15.9552 20.6141 15.9004 20.5177 15.8998 20.2724V19.0827L17.3488 20.7158ZM17.4542 20.7405L17.3396 20.7362L15.9246 19.146V20.2724C15.928 20.5177 15.9648 20.5867 16.175 20.5896H16.2341V20.6979H16.2221C16.1014 20.6979 15.9816 20.6864 15.8624 20.6864C15.7377 20.6864 15.6084 20.6979 15.4834 20.6979H15.4702V20.5896H15.5214C15.7055 20.5888 15.7588 20.4689 15.7607 20.2443V19.0608C15.7601 18.9106 15.6391 18.82 15.5192 18.8197H15.4702V18.7114H15.4834C15.5895 18.7114 15.6988 18.7225 15.8039 18.7225C15.886 18.7225 15.9666 18.7114 16.0601 18.7147L17.286 20.1063V19.0722C17.2857 18.8485 17.1367 18.821 17.0559 18.8197H16.982V18.7114H16.9943C17.1263 18.7114 17.2547 18.7225 17.3849 18.7225C17.4983 18.7225 17.6129 18.7114 17.7278 18.7114H17.7397V18.8197H17.6865C17.5715 18.8226 17.4529 18.8337 17.4499 19.1646V20.4444C17.4499 20.5422 17.4523 20.6396 17.4665 20.7263L17.4677 20.7405H17.4542Z" fill="#FEFEFE"></path>
<path d="M18.5838 19.0381H18.5782L18.3187 19.8341H18.8399L18.5838 19.0381ZM18.1771 20.2838C18.1486 20.3793 18.1146 20.4531 18.1146 20.5029C18.1146 20.5876 18.2326 20.6011 18.3242 20.6011H18.3551V20.6858C18.243 20.6803 18.1291 20.675 18.0172 20.675C17.9167 20.675 17.8168 20.6803 17.7166 20.6858V20.6011H17.7328C17.8416 20.6011 17.9341 20.5365 17.9749 20.4186L18.4216 19.1287C18.4578 19.0243 18.5087 18.884 18.5249 18.7793C18.6141 18.7487 18.7259 18.6927 18.7789 18.6587C18.7874 18.6557 18.7918 18.6535 18.801 18.6535C18.809 18.6535 18.8148 18.6535 18.8206 18.6616C18.8288 18.6841 18.8372 18.7094 18.846 18.732L19.3586 20.2027C19.392 20.3008 19.4257 20.4053 19.4616 20.4897C19.4952 20.5681 19.5541 20.6011 19.646 20.6011H19.6623V20.6858C19.5373 20.6803 19.4116 20.675 19.2781 20.675C19.1417 20.675 19.002 20.6803 18.8601 20.6858V20.6011H18.8907C18.9545 20.6011 19.0633 20.5906 19.0633 20.5201C19.0633 20.4836 19.0384 20.4075 19.0068 20.3176L18.8984 19.9913H18.2654L18.1771 20.2838Z" fill="#FEFEFE"></path>
<path d="M18.3349 19.822H18.8229L18.5803 19.0682L18.3349 19.822ZM18.3015 19.8465L18.5686 19.0262H18.5919L18.8567 19.8465H18.3015ZM18.8716 20.6726C19.0093 20.6682 19.145 20.6625 19.278 20.6625C19.4079 20.6625 19.5289 20.6682 19.6502 20.6726V20.6143H19.646C19.5509 20.6151 19.4854 20.5766 19.4504 20.4944C19.4143 20.4091 19.3803 20.3046 19.3475 20.2064L18.8343 18.7358C18.8257 18.7133 18.8171 18.6879 18.8104 18.6678C18.8077 18.665 18.8086 18.665 18.8061 18.665H18.8009C18.7954 18.665 18.792 18.6666 18.785 18.6688C18.7311 18.7036 18.6189 18.7593 18.5362 18.7812C18.5193 18.8881 18.4691 19.028 18.4326 19.1322L17.9868 20.4229C17.9442 20.545 17.8465 20.6143 17.7328 20.6143H17.7284V20.6726C17.8238 20.6682 17.9206 20.6625 18.0174 20.6625C18.1253 20.6625 18.2352 20.6682 18.3419 20.6726V20.6143H18.3241C18.2332 20.6129 18.1062 20.6031 18.1032 20.5033C18.1032 20.4474 18.1369 20.3751 18.1648 20.2805L18.2568 19.9796H18.9063L19.0181 20.3137C19.0497 20.4041 19.0751 20.479 19.0751 20.5203C19.0708 20.6064 18.9535 20.6127 18.8907 20.6143H18.8716V20.6726ZM19.6616 20.6979C19.5369 20.6927 19.4115 20.6864 19.278 20.6864C19.1417 20.6864 19.0028 20.6927 18.8601 20.6979L18.8475 20.6989V20.5886H18.8907C18.9547 20.5886 19.0503 20.5744 19.0503 20.5203C19.051 20.4881 19.0267 20.4109 18.9958 20.3218L18.8898 20.0037H18.2745L18.1875 20.2874C18.159 20.3838 18.1262 20.4579 18.1262 20.5033C18.1271 20.5718 18.2316 20.5886 18.3241 20.5886H18.3667V20.6989L18.3541 20.6979C18.2426 20.6927 18.1283 20.6864 18.0174 20.6864C17.9172 20.6864 17.8167 20.6927 17.7169 20.6979L17.7046 20.6989V20.5886H17.7328C17.8367 20.5886 17.923 20.5286 17.9632 20.4146L18.41 19.1244C18.4467 19.02 18.4966 18.88 18.5209 18.7682C18.6082 18.7377 18.72 18.6811 18.7742 18.6472C18.7822 18.6444 18.7896 18.6403 18.8009 18.6403C18.8077 18.64 18.8229 18.6421 18.8313 18.6573C18.8398 18.6802 18.8483 18.7052 18.8567 18.7278L19.3705 20.1987C19.4033 20.2969 19.4367 20.4008 19.4728 20.4836C19.5049 20.559 19.5565 20.5886 19.646 20.5886H19.6748V20.6989L19.6616 20.6979Z" fill="#FEFEFE"></path>
<path d="M19.7856 18.8637C19.5759 18.8637 19.568 18.9144 19.5261 19.1195H19.4421C19.4534 19.0411 19.4675 18.9622 19.4758 18.8804C19.4871 18.802 19.4926 18.7229 19.4926 18.6419H19.5595C19.5818 18.7262 19.6516 18.7229 19.7268 18.7229H21.1656C21.2408 18.7229 21.31 18.7204 21.3157 18.636L21.3828 18.6478C21.3722 18.7229 21.3615 18.7991 21.3522 18.8752C21.3455 18.9508 21.3455 19.0272 21.3455 19.1029L21.2627 19.1344C21.2581 19.0299 21.2433 18.8637 21.0568 18.8637H20.5994V20.3597C20.5994 20.5768 20.6971 20.6013 20.8309 20.6013H20.8838V20.6858C20.7754 20.6858 20.5801 20.6748 20.4293 20.6748C20.2622 20.6748 20.0666 20.6858 19.9575 20.6858V20.6013H20.0108C20.1649 20.6013 20.243 20.5876 20.243 20.3658V18.8637H19.7856Z" fill="#FEFEFE"></path>
<path d="M20.8836 20.6979C20.7746 20.6979 20.5795 20.6868 20.4295 20.6868C20.2628 20.6868 20.0678 20.6979 19.9577 20.6979H19.9458V20.5894H20.011C20.1647 20.5859 20.2261 20.5839 20.23 20.3658V18.8757H19.7854V18.8519H20.2541V20.3658C20.2541 20.591 20.1645 20.6129 20.011 20.6143H19.9697V20.6738C20.08 20.6726 20.2673 20.6625 20.4295 20.6625C20.5749 20.6625 20.7616 20.6726 20.8719 20.6738L20.8711 20.6143H20.8305C20.6963 20.6129 20.588 20.5811 20.5876 20.3597V18.8519H21.0566C21.2445 18.8522 21.2684 19.0123 21.2739 19.1168L21.3345 19.0942C21.3345 19.0213 21.3345 18.9478 21.3404 18.8739C21.3481 18.8016 21.359 18.7296 21.3688 18.6582L21.3272 18.6505C21.3138 18.7321 21.2356 18.7367 21.1654 18.7358H19.7124C19.6466 18.7361 19.5758 18.7324 19.5503 18.6533H19.5047C19.5038 18.7321 19.4989 18.8071 19.4875 18.8825C19.4798 18.9601 19.4663 19.0339 19.456 19.1074H19.516C19.5529 18.9122 19.5764 18.8479 19.7854 18.8519V18.8757C19.5782 18.8795 19.5831 18.9147 19.5378 19.1226L19.5356 19.1322H19.4277L19.4296 19.1177C19.4409 19.0392 19.4551 18.9604 19.4633 18.8795C19.4747 18.8007 19.4798 18.7225 19.4798 18.6418V18.6295H19.5681L19.5705 18.6385C19.5902 18.7096 19.6416 18.7099 19.7124 18.7114H21.1654C21.2427 18.7099 21.2992 18.7086 21.3039 18.635L21.3041 18.6221L21.3177 18.6246L21.397 18.6369L21.3945 18.649C21.3826 18.7247 21.3726 18.8007 21.3645 18.8757C21.359 18.9511 21.359 19.0272 21.359 19.1028V19.1114L21.3505 19.1149L21.2516 19.1513V19.1343C21.2445 19.029 21.2331 18.8757 21.0566 18.8757H20.6113V20.3597C20.6142 20.5718 20.6977 20.5867 20.8305 20.5894H20.8956V20.6979H20.8836Z" fill="#FEFEFE"></path>
<path d="M21.4856 20.6011H21.5243C21.6255 20.6011 21.7309 20.5878 21.7309 20.4411V18.9683C21.7309 18.8216 21.6255 18.8083 21.5243 18.8083H21.4856V18.7227C21.5946 18.7227 21.7613 18.7345 21.8981 18.7345C22.0376 18.7345 22.2047 18.7227 22.3363 18.7227V18.8083H22.2975C22.1964 18.8083 22.0901 18.8216 22.0901 18.9683V20.4411C22.0901 20.5878 22.1964 20.6011 22.2975 20.6011H22.3363V20.686C22.2022 20.686 22.035 20.675 21.8957 20.675C21.7586 20.675 21.5946 20.686 21.4856 20.686V20.6011Z" fill="#FEFEFE"></path>
<path d="M22.3235 20.6736V20.6141H22.2977C22.1974 20.6141 22.0788 20.5961 22.0788 20.4411V18.9681C22.0788 18.813 22.1974 18.7957 22.2977 18.7957H22.3235V18.7358C22.1951 18.7363 22.034 18.7469 21.8981 18.7469C21.7655 18.7469 21.6058 18.7363 21.4979 18.7358V18.7957H21.5245C21.6236 18.7957 21.743 18.813 21.743 18.9681V20.4411C21.743 20.5961 21.6236 20.6141 21.5245 20.6141H21.4979V20.6736C21.6058 20.672 21.7629 20.6623 21.8957 20.6623C22.0311 20.6623 22.1925 20.6726 22.3235 20.6736ZM22.3363 20.6979C22.2016 20.6979 22.0346 20.6864 21.8957 20.6864C21.7593 20.6864 21.5944 20.6979 21.4856 20.6979H21.474V20.5898H21.5245C21.6256 20.5878 21.7179 20.5788 21.7181 20.4411V18.9681C21.7179 18.8312 21.6256 18.8216 21.5245 18.8195H21.474V18.7114H21.4856C21.5944 18.7114 21.7621 18.7225 21.8981 18.7225C22.0376 18.7225 22.2043 18.7114 22.3363 18.7114H22.3478V18.8195H22.2977C22.1954 18.8216 22.1037 18.8312 22.1027 18.9681V20.4411C22.1037 20.5788 22.1954 20.5878 22.2977 20.5898H22.3478V20.6979H22.3363Z" fill="#FEFEFE"></path>
<path d="M23.4902 20.6044C24.032 20.6044 24.1254 20.1235 24.1254 19.7137C24.1254 19.3026 23.9061 18.8052 23.443 18.8052C22.9554 18.8052 22.8105 19.2435 22.8105 19.6198C22.8105 20.1235 23.0391 20.6044 23.4902 20.6044ZM23.4485 18.6812C24.0427 18.6812 24.5169 19.0526 24.5169 19.6516C24.5169 20.2983 24.0567 20.7281 23.4625 20.7281C22.8707 20.7281 22.4202 20.3235 22.4202 19.7184C22.4202 19.1345 22.8689 18.6812 23.4485 18.6812Z" fill="#FEFEFE"></path>
<path d="M22.7975 19.6199C22.7985 19.2417 22.9457 18.7925 23.443 18.7925C23.917 18.7934 24.1376 19.3004 24.1378 19.7137C24.1376 20.1235 24.0415 20.6161 23.4902 20.6161V20.5924C24.0212 20.592 24.1127 20.1235 24.1139 19.7137C24.1139 19.3059 23.8961 18.8178 23.443 18.8171C22.9647 18.8178 22.823 19.2457 22.8222 19.6199C22.8228 20.1213 23.0493 20.5912 23.4902 20.5924V20.6161C23.0278 20.6155 22.7985 20.1262 22.7975 19.6199ZM22.4074 19.7187C22.4088 19.1274 22.8626 18.6698 23.4485 18.6685V18.6936C22.8745 18.6936 22.4311 19.1403 22.4311 19.7187C22.4319 20.3164 22.877 20.7155 23.4625 20.7156C24.0504 20.7155 24.5037 20.2916 24.5052 19.651C24.5048 19.0597 24.038 18.6942 23.4485 18.6936V18.6685C24.0472 18.6698 24.5273 19.0449 24.5283 19.651C24.5279 20.3044 24.0626 20.7392 23.4625 20.7403C22.8662 20.7392 22.4088 20.3295 22.4074 19.7187Z" fill="#FEFEFE"></path>
<path d="M26.3963 20.1319L26.4016 20.1264V19.072C26.4016 18.8416 26.2426 18.8082 26.1579 18.8082H26.0979V18.723C26.2284 18.723 26.3572 18.7344 26.4878 18.7344C26.6031 18.7344 26.7171 18.723 26.8308 18.723V18.8082H26.7892C26.6718 18.8082 26.5403 18.8302 26.5403 19.1648V20.4444C26.5403 20.5426 26.5439 20.6408 26.5577 20.7281H26.4513L25.0153 19.1144V20.2722C25.0153 20.5175 25.0625 20.6011 25.2778 20.6011H25.325V20.686C25.2052 20.686 25.0858 20.6748 24.9652 20.6748C24.8399 20.6748 24.7113 20.686 24.5857 20.686V20.6011H24.6252C24.8182 20.6011 24.8754 20.4697 24.8754 20.2445V19.0606C24.8754 18.903 24.7482 18.8082 24.6217 18.8082H24.5857V18.723C24.6921 18.723 24.8004 18.7344 24.9068 18.7344C24.9901 18.7344 25.071 18.723 25.1547 18.723L26.3963 20.1319Z" fill="#FEFEFE"></path>
<path d="M26.4511 20.7158H26.5435C26.5311 20.6315 26.5287 20.5375 26.5287 20.4444V19.1646C26.5287 18.8269 26.6696 18.7963 26.7892 18.7957H26.8192V18.7357C26.7085 18.7363 26.5986 18.7468 26.4871 18.7468C26.3608 18.7468 26.236 18.7363 26.1096 18.7357V18.7957H26.1579C26.2451 18.7963 26.4133 18.8346 26.4133 19.0722L26.4099 20.1351L26.405 20.1402L26.3961 20.1497L25.1545 18.7357C25.0724 18.7357 24.9909 18.7468 24.9068 18.7468C24.8036 18.7468 24.6986 18.7363 24.5978 18.7357V18.7957H24.6217C24.7533 18.7963 24.8879 18.8958 24.8879 19.0608V20.2445C24.8879 20.4699 24.8257 20.6131 24.625 20.6141H24.5978V20.6736C24.7189 20.6726 24.8425 20.6623 24.9654 20.6623C25.082 20.6623 25.1977 20.6726 25.3127 20.6736V20.6141H25.2768C25.058 20.6141 25.0035 20.5177 25.0035 20.2724V19.0827L26.4511 20.7158ZM26.5575 20.7405L26.4421 20.7362L25.027 19.146V20.2724C25.0303 20.5177 25.0674 20.5863 25.2768 20.5888H25.3374V20.6979H25.3252C25.2044 20.6979 25.0846 20.687 24.9654 20.687C24.8403 20.687 24.7124 20.6979 24.5856 20.6979H24.5743V20.5888H24.625C24.8089 20.5882 24.8618 20.4689 24.8632 20.2445V19.0608C24.8632 18.9106 24.742 18.82 24.6217 18.8197H24.5743V18.7114H24.5856C24.6925 18.7114 24.8014 18.7225 24.9068 18.7225C24.9893 18.7225 25.0694 18.7114 25.1641 18.7157L26.389 20.1063V19.0722C26.3884 18.8485 26.2404 18.8216 26.1579 18.8197H26.0855V18.7114H26.0977C26.2287 18.7114 26.358 18.7225 26.4871 18.7225C26.6019 18.7225 26.715 18.7114 26.8308 18.7114H26.8428V18.8197H26.7892C26.6745 18.8232 26.5555 18.8337 26.553 19.1646V20.4444C26.553 20.5422 26.5555 20.6404 26.5684 20.7263L26.5711 20.7405H26.5575Z" fill="#FEFEFE"></path>
<path d="M27.6863 19.0381H27.6809L27.4212 19.8341H27.9438L27.6863 19.0381ZM27.279 20.2838C27.2517 20.3793 27.2182 20.4531 27.2182 20.5029C27.2182 20.5876 27.336 20.6011 27.4268 20.6011H27.4579V20.6858C27.3462 20.6803 27.2322 20.675 27.1203 20.675C27.0189 20.675 26.9194 20.6803 26.82 20.6858V20.6011H26.8351C26.9445 20.6011 27.037 20.5365 27.0785 20.4186L27.525 19.1287C27.5613 19.0243 27.6113 18.884 27.6278 18.7793C27.7168 18.7487 27.8285 18.6927 27.8816 18.6587C27.8901 18.6557 27.8958 18.6535 27.9043 18.6535C27.9122 18.6535 27.9173 18.6535 27.9234 18.6616C27.9321 18.6841 27.94 18.7094 27.9491 18.732L28.4618 20.2027C28.4947 20.3008 28.5291 20.4053 28.565 20.4897C28.5981 20.5681 28.6573 20.6011 28.7493 20.6011H28.7657V20.6858C28.6406 20.6803 28.5145 20.675 28.3809 20.675C28.2443 20.675 28.1044 20.6803 27.9625 20.6858V20.6011H27.9933C28.057 20.6011 28.1664 20.5906 28.1664 20.5201C28.1664 20.4836 28.1409 20.4075 28.1101 20.3176L28.002 19.9913H27.3693L27.279 20.2838Z" fill="#FEFEFE"></path>
<path d="M27.4384 19.8214H27.9264L27.6833 19.0688L27.4384 19.8214ZM27.4045 19.8455L27.6732 19.0262H27.6955L27.959 19.8455H27.4045ZM27.9746 20.673C28.1123 20.6682 28.2483 20.6625 28.3811 20.6625C28.5105 20.6625 28.6319 20.6682 28.753 20.6726V20.6143H28.7489C28.6546 20.6143 28.5885 20.5766 28.5537 20.4944C28.5164 20.4091 28.4833 20.3046 28.4503 20.2064L27.9375 18.7358C27.9292 18.7133 27.9201 18.6879 27.9134 18.6688C27.9112 18.665 27.9092 18.665 27.9092 18.665H27.9043C27.8984 18.665 27.8952 18.6666 27.8879 18.6688C27.8339 18.7031 27.7228 18.7596 27.6391 18.7812C27.6227 18.8881 27.5716 19.028 27.5363 19.1322L27.0893 20.4229C27.0467 20.545 26.9502 20.6143 26.8355 20.6143H26.8308V20.6726C26.9273 20.6682 27.0236 20.6625 27.1205 20.6625C27.2286 20.6625 27.3383 20.6682 27.4463 20.6726V20.6143H27.4268C27.3366 20.6129 27.2091 20.6031 27.2059 20.5029C27.2063 20.4474 27.2411 20.3755 27.2685 20.2807L27.3597 19.9797H28.0105L28.1218 20.3137C28.1531 20.4041 28.1778 20.479 28.1778 20.5203C28.1739 20.6064 28.0568 20.6127 27.9927 20.6143H27.9746V20.673ZM28.7653 20.6979C28.6396 20.6929 28.5137 20.6868 28.3811 20.6868C28.2449 20.6868 28.1052 20.6929 27.9631 20.6979L27.9507 20.6989V20.5898H27.9927C28.0574 20.5898 28.1539 20.5744 28.1545 20.5203C28.1547 20.4881 28.1301 20.4113 28.0983 20.3218L27.9923 20.0037H27.3768L27.2912 20.2874C27.2632 20.384 27.2294 20.4579 27.2304 20.5029C27.2304 20.5718 27.3348 20.5898 27.4268 20.5898H27.4696V20.6989L27.4569 20.6979C27.3458 20.6929 27.2314 20.6868 27.1205 20.6868C27.0201 20.6868 26.9204 20.6929 26.82 20.6979L26.8075 20.6989V20.5898H26.8355C26.9393 20.5886 27.0268 20.5284 27.067 20.4146L27.5136 19.1244C27.5489 19.02 27.5994 18.8801 27.6235 18.7682C27.7115 18.7377 27.8236 18.6811 27.8771 18.6472C27.8846 18.6443 27.8931 18.641 27.9043 18.641C27.9112 18.64 27.926 18.6422 27.9349 18.6577C27.9428 18.6799 27.9511 18.7052 27.9599 18.7278L28.4732 20.1987C28.5064 20.2969 28.5401 20.4008 28.5764 20.4841C28.6092 20.559 28.6591 20.5886 28.7489 20.5898H28.7773V20.6989L28.7653 20.6979Z" fill="#FEFEFE"></path>
<path d="M29.4688 20.4105C29.4688 20.5229 29.5463 20.5566 29.6353 20.5681C29.7496 20.5766 29.8751 20.5766 30.0041 20.5624C30.1204 20.5489 30.2216 20.4808 30.2711 20.4105C30.3157 20.3482 30.3404 20.2702 30.3577 20.2078H30.4389C30.4077 20.3682 30.3688 20.526 30.3349 20.686C30.0898 20.686 29.8441 20.675 29.5996 20.675C29.3539 20.675 29.1082 20.686 28.8629 20.686V20.6011H28.9012C29.0027 20.6011 29.1114 20.5878 29.1114 20.4128V18.9682C29.1114 18.8214 29.0027 18.8082 28.9012 18.8082H28.8629V18.723C29.0106 18.723 29.156 18.7344 29.3034 18.7344C29.4459 18.7344 29.5852 18.723 29.7277 18.723V18.8082H29.6576C29.5516 18.8082 29.4688 18.811 29.4688 18.9602V20.4105Z" fill="#FEFEFE"></path>
<path d="M30.3256 20.6736C30.3577 20.5213 30.3945 20.3716 30.4237 20.2197H30.3664C30.3495 20.2817 30.3246 20.3567 30.2804 20.4178C30.2289 20.4909 30.1251 20.5594 30.0043 20.5744C29.9309 20.5823 29.8587 20.5859 29.7908 20.5859C29.7367 20.5859 29.6837 20.5833 29.6335 20.5799C29.5434 20.5697 29.4549 20.5308 29.4559 20.4105V18.9601C29.4559 18.8034 29.5538 18.7957 29.6578 18.7957H29.7152V18.7358C29.5779 18.7363 29.4419 18.7469 29.3034 18.7469C29.1586 18.7469 29.0173 18.7363 28.8748 18.7358V18.7957H28.9014C29.0013 18.7957 29.123 18.813 29.123 18.9677V20.4128C29.123 20.5948 29.0017 20.6141 28.9014 20.6141H28.8748V20.6736C29.1153 20.6728 29.3571 20.6623 29.5998 20.6623C29.8419 20.6623 30.0835 20.6728 30.3256 20.6736ZM30.3351 20.6979C30.0894 20.6979 29.8443 20.6868 29.5998 20.6868C29.3541 20.6868 29.1082 20.6979 28.8624 20.6979H28.8513V20.5898H28.9014C29.0027 20.5873 29.099 20.5797 29.0996 20.4128V18.9677C29.099 18.8312 29.0037 18.8216 28.9014 18.8195H28.8513V18.7114H28.8624C29.0113 18.7114 29.1562 18.7225 29.3034 18.7225C29.4455 18.7225 29.5846 18.7114 29.7279 18.7114H29.7389V18.8195H29.6578C29.5493 18.8226 29.482 18.8176 29.4794 18.9601V20.4105C29.4806 20.5154 29.5487 20.5432 29.6365 20.556C29.6848 20.5594 29.7371 20.5614 29.7908 20.5614C29.8587 20.5614 29.9295 20.558 30.0024 20.5503C30.1158 20.5367 30.2131 20.4709 30.2615 20.4037C30.3045 20.3433 30.3291 20.2663 30.3451 20.2048L30.3483 20.1952H30.4535L30.4505 20.2108C30.4193 20.371 30.3812 20.5284 30.3473 20.689L30.3443 20.6979H30.3351Z" fill="#FEFEFE"></path>
<path d="M30.3581 18.9404H30.3921C30.4302 18.9404 30.4477 18.9117 30.4477 18.865C30.4477 18.8177 30.4197 18.8013 30.3901 18.8013H30.3581V18.9404ZM30.2587 19.0967V19.0819C30.2942 19.077 30.3013 19.0786 30.3013 19.0553V18.8366C30.3013 18.8053 30.298 18.7948 30.2597 18.7967V18.7813H30.4104C30.4611 18.7813 30.5089 18.8066 30.5089 18.8601C30.5089 18.9045 30.4805 18.9364 30.4398 18.9493L30.4874 19.0176C30.5107 19.0476 30.5359 19.077 30.5527 19.0871V19.0967H30.4957C30.4683 19.0967 30.4446 19.038 30.3901 18.9604H30.3581V19.0584C30.3581 19.0785 30.3647 19.077 30.4002 19.0819V19.0967H30.2587ZM30.4045 19.1804C30.5359 19.1804 30.6368 19.068 30.6368 18.9404C30.6368 18.8128 30.5377 18.6988 30.4045 18.6988C30.2721 18.6988 30.1717 18.8128 30.1717 18.9404C30.1717 19.068 30.2721 19.1804 30.4045 19.1804ZM30.4045 18.6438C30.5724 18.6438 30.698 18.7742 30.698 18.9404C30.698 19.1066 30.5724 19.2354 30.4045 19.2354C30.237 19.2354 30.1107 19.1066 30.1107 18.9404C30.1107 18.7742 30.237 18.6438 30.4045 18.6438Z" fill="#FEFEFE"></path>
<path fill-rule="evenodd" clip-rule="evenodd" d="M17.6964 13.181C14.9648 13.1935 12.7165 10.9922 12.7165 8.31211C12.7165 5.38308 14.9648 3.35709 17.6964 3.35762H18.9768C21.6759 3.35709 24.1396 5.382 24.1396 8.31211C24.1396 10.9909 21.6759 13.181 18.9768 13.181H17.6964Z" fill="#FEFEFE"></path>
<path fill-rule="evenodd" clip-rule="evenodd" d="M17.7075 3.76399C15.2113 3.7648 13.1887 5.77724 13.1887 8.26072C13.1887 10.7437 15.2113 12.7558 17.7075 12.7561C20.204 12.7561 22.2268 10.7437 22.2276 8.26072C22.2268 5.77698 20.2036 3.76452 17.7075 3.76399Z" fill="#004C97"></path>
<path fill-rule="evenodd" clip-rule="evenodd" d="M16.6814 10.9194V5.6009C15.6072 6.01262 14.8455 7.04673 14.8428 8.26072C14.8455 9.47415 15.6074 10.5088 16.6814 10.9194ZM20.5726 8.26072C20.5706 7.0462 19.8077 6.01072 18.7324 5.60037V10.9208C19.8077 10.5099 20.5708 9.47549 20.5726 8.26072Z" fill="#FEFEFE" fill-opacity="0.937255"></path>
</g></svg>