<svg xmlns="http://www.w3.org/2000/svg" viewBox="0.9672240614891052 0 36.999977111816406 24.0492000579834"><g xmlns="http://www.w3.org/2000/svg" clip-path="url(#clip0_2882_260)">
<path d="M0.967224 4C0.967224 1.79086 2.75809 0 4.96722 0H33.9672C36.1764 0 37.9672 1.79086 37.9672 4V20C37.9672 22.2091 36.1764 24 33.9672 24H4.96722C2.75809 24 0.967224 22.2091 0.967224 20V4Z" fill="white"></path>
<path d="M37.2272 0.0491791H1.70722C1.29853 0.0491791 0.967224 0.38082 0.967224 0.78992V23.3084C0.967224 23.7175 1.29853 24.0492 1.70722 24.0492H37.2272C37.6359 24.0492 37.9672 23.7175 37.9672 23.3084V0.78992C37.9672 0.38082 37.6359 0.0491791 37.2272 0.0491791Z" fill="black"></path>
<path d="M8.87417 8.75087C9.22006 8.6344 9.58984 8.57177 9.97482 8.57177C11.6534 8.57177 13.0546 9.77384 13.376 11.3721L15.7555 10.8825C15.209 8.16707 12.8291 6.12325 9.97482 6.12325C9.32068 6.12325 8.69249 6.23071 8.10461 6.42871L8.87417 8.75087Z" fill="#FFCB03"></path>
<path d="M6.06606 16.5267L7.6751 14.6923C6.95698 14.0506 6.50373 13.1143 6.50373 12.071C6.50373 11.0286 6.95635 10.0925 7.67405 9.45165L6.06466 7.61712C4.84496 8.70666 4.07522 10.2985 4.07522 12.071C4.07522 13.8447 4.8453 15.4369 6.06606 16.5267Z" fill="#00A4E0"></path>
<path d="M13.3749 12.7728C13.0523 14.3699 11.6522 15.5698 9.97435 15.5698C9.58925 15.5698 9.21842 15.5073 8.87289 15.3901L8.10211 17.713C8.68994 17.911 9.31959 18.0181 9.97435 18.0181C12.8259 18.0181 15.2057 15.9777 15.754 13.2647L13.3749 12.7728Z" fill="#EF4023"></path>
<path d="M22.5904 14.046C22.5898 14.0465 22.5892 14.0471 22.5888 14.0479L22.5212 14.0019C22.3264 14.3206 22.0219 14.579 21.6385 14.7468C20.9082 15.0669 20.2317 14.9845 19.7457 14.5549L19.7012 14.6234C19.7007 14.6227 19.7005 14.6221 19.6998 14.6221L18.8713 15.8718C19.0768 16.016 19.2979 16.138 19.5297 16.2357C20.445 16.619 21.3818 16.6014 22.3043 16.1967C22.9715 15.9053 23.4952 15.4605 23.853 14.897L22.5904 14.046ZM20.004 10.9621C19.233 11.2963 18.8354 12.0254 18.9172 12.8806L22.1833 11.4633C21.6217 10.7978 20.8908 10.5771 20.004 10.9621ZM17.8356 14.7695C17.7577 14.6422 17.6515 14.4386 17.588 14.2887C17.2111 13.4067 17.193 12.4938 17.5111 11.6175C17.861 10.6566 18.5295 9.92088 19.3929 9.54615C20.4785 9.07513 21.6793 9.16803 22.7199 9.79049C23.3811 10.1728 23.8496 10.7632 24.2052 11.598C24.2508 11.705 24.2906 11.819 24.3295 11.916L17.8356 14.7695Z" fill="white"></path>
<path d="M26.5998 7.70518V14.654L27.6716 15.092L27.0626 16.5245L25.88 16.0277C25.6146 15.9118 25.4336 15.7346 25.297 15.5343C25.1658 15.3302 25.0683 15.0501 25.0683 14.6731V7.70518H26.5998Z" fill="white"></path>
<path d="M29.3751 12.8841C29.3755 12.2924 29.6348 11.762 30.0449 11.4011L28.9457 10.1654C28.2004 10.8297 27.7308 11.8007 27.7298 12.8822C27.7284 13.9646 28.1974 14.9367 28.9422 15.6027L30.0401 14.3658C29.6321 14.0035 29.3749 13.4743 29.3751 12.8841Z" fill="white"></path>
<path d="M31.3279 14.8559C31.1115 14.8554 30.9033 14.8193 30.7087 14.7539L30.1836 16.3279C30.5426 16.4493 30.927 16.5155 31.3262 16.5161C33.0668 16.5178 34.5202 15.2725 34.8571 13.6172L33.2435 13.2849C33.0597 14.1824 32.2718 14.8566 31.3279 14.8559Z" fill="white"></path>
<path d="M31.3331 9.25518C30.9341 9.25475 30.5501 9.32025 30.1917 9.44055L30.7119 11.0157C30.907 10.9507 31.1154 10.9149 31.3313 10.9149C32.2777 10.9158 33.0661 11.5942 33.2452 12.4939L34.8592 12.1638C34.5269 10.5063 33.0749 9.25625 31.3331 9.25518Z" fill="white"></path>
</g></svg>