<svg xmlns="http://www.w3.org/2000/svg" viewBox="0 0 37 24"><g xmlns="http://www.w3.org/2000/svg" clip-path="url(#clip0_2882_264)">
<path d="M0 4C0 1.79086 1.79086 0 4 0H33C35.2091 0 37 1.79086 37 4V20C37 22.2091 35.2091 24 33 24H4C1.79086 24 0 22.2091 0 20V4Z" fill="white"></path>
<path d="M0 1.57377C0 0.704601 0.704913 0 1.57447 0H35.4255C36.295 0 37 0.704601 37 1.57377V22.4262C37 23.2953 36.295 24 35.4255 24H1.57447C0.704913 24 0 23.2953 0 22.4262V1.57377Z" fill="black"></path>
<path d="M0 1.57377C0 0.704601 0.704913 0 1.57447 0H35.4255C36.295 0 37 0.704601 37 1.57377V22.4262C37 23.2953 36.295 24 35.4255 24H1.57447C0.704913 24 0 23.2953 0 22.4262V1.57377Z" fill="white"></path>
<path d="M36.2128 0.0491803H0.787234C0.37963 0.0491803 0.0492021 0.379462 0.0492021 0.786885V23.2131C0.0492021 23.6205 0.37963 23.9508 0.787234 23.9508H36.2128C36.6204 23.9508 36.9508 23.6205 36.9508 23.2131V0.786885C36.9508 0.379462 36.6204 0.0491803 36.2128 0.0491803Z" fill="black"></path>
<path fill-rule="evenodd" clip-rule="evenodd" d="M0.787234 0.0983607C0.406803 0.0983607 0.0984043 0.406623 0.0984043 0.786885V23.2131C0.0984043 23.5934 0.406803 23.9016 0.787234 23.9016H36.2128C36.5932 23.9016 36.9016 23.5934 36.9016 23.2131V0.786885C36.9016 0.406623 36.5932 0.0983607 36.2128 0.0983607H0.787234ZM0 0.786885C0 0.3523 0.352456 0 0.787234 0H36.2128C36.6475 0 37 0.3523 37 0.786885V23.2131C37 23.6477 36.6475 24 36.2128 24H0.787234C0.352456 24 0 23.6477 0 23.2131V0.786885Z" fill="#495057"></path>
<path d="M11.2564 20.8739V19.6936C11.2633 19.5943 11.2489 19.4947 11.2143 19.4015C11.1796 19.3082 11.1255 19.2233 11.0555 19.1526C10.9855 19.0819 10.9012 19.0269 10.8082 18.9913C10.7153 18.9557 10.6158 18.9402 10.5164 18.9461C10.3863 18.9375 10.2563 18.9641 10.14 19.0229C10.0237 19.0817 9.92531 19.1707 9.85513 19.2805C9.79114 19.174 9.69961 19.0867 9.59014 19.0278C9.4807 18.969 9.35738 18.9407 9.23321 18.9461C9.12497 18.9406 9.01718 18.9635 8.9205 19.0125C8.82385 19.0615 8.74168 19.1349 8.68215 19.2254V18.9933H8.27279V20.8739H8.68608V19.8391C8.67729 19.7748 8.68282 19.7095 8.70228 19.6475C8.72173 19.5856 8.75463 19.5287 8.79864 19.481C8.84265 19.4332 8.89665 19.3958 8.95679 19.3713C9.01696 19.3469 9.08177 19.336 9.14662 19.3395C9.41821 19.3395 9.55598 19.5166 9.55598 19.8352V20.8818H9.96928V19.8391C9.96083 19.775 9.96662 19.7097 9.98622 19.6479C10.0058 19.5861 10.0387 19.5294 10.0826 19.4817C10.1266 19.4341 10.1804 19.3966 10.2404 19.3721C10.3004 19.3475 10.3651 19.3364 10.4298 19.3395C10.7093 19.3395 10.8431 19.5166 10.8431 19.8352V20.8818L11.2564 20.8739ZM17.3712 18.9933H16.6982V18.4228H16.2849V18.9933H15.9109V19.3671H16.2927V20.2326C16.2927 20.6693 16.462 20.929 16.9461 20.929C17.127 20.9296 17.3044 20.8792 17.4578 20.7834L17.3398 20.4332C17.23 20.4988 17.1054 20.5353 16.9776 20.5395C16.7808 20.5395 16.706 20.4136 16.706 20.2247V19.3671H17.3752L17.3712 18.9933ZM20.8627 18.9461C20.7629 18.9431 20.6641 18.9672 20.5767 19.0156C20.4895 19.0641 20.4169 19.1352 20.3667 19.2215V18.9933H19.9613V20.8739H20.3707V19.8195C20.3707 19.5087 20.5045 19.3356 20.7643 19.3356C20.8519 19.3344 20.9387 19.3504 21.0201 19.3828L21.1461 18.9893C21.0526 18.9559 20.954 18.9386 20.8548 18.9382L20.8627 18.9461ZM15.5842 19.1428C15.3525 19.0051 15.0861 18.9368 14.8167 18.9461C14.3404 18.9461 14.0294 19.1743 14.0294 19.548C14.0294 19.8549 14.2577 20.0437 14.6789 20.1028L14.8757 20.1303C15.1001 20.1618 15.2064 20.2208 15.2064 20.327C15.2064 20.4726 15.0568 20.5552 14.7773 20.5552C14.5525 20.5617 14.3321 20.4925 14.1515 20.3585L13.9546 20.6772C14.1931 20.8436 14.4787 20.9292 14.7694 20.9211C15.3126 20.9211 15.6275 20.6654 15.6275 20.3073C15.6275 19.9493 15.3795 19.8037 14.9702 19.7447L14.7734 19.7172C14.5962 19.6936 14.4545 19.6582 14.4545 19.5323C14.4545 19.4064 14.5884 19.312 14.8127 19.312C15.0201 19.3144 15.2234 19.3699 15.4032 19.4733L15.5842 19.1428ZM26.5485 18.9461C26.4487 18.9431 26.3499 18.9672 26.2625 19.0156C26.1753 19.0641 26.1027 19.1352 26.0525 19.2215V18.9933H25.6471V20.8739H26.0565V19.8195C26.0565 19.5087 26.1903 19.3356 26.4501 19.3356C26.5377 19.3344 26.6245 19.3504 26.7059 19.3828L26.8319 18.9893C26.7384 18.9559 26.6398 18.9386 26.5406 18.9382L26.5485 18.9461ZM21.274 19.9296C21.2691 20.0618 21.2919 20.1936 21.3409 20.3164C21.3897 20.4393 21.4639 20.5505 21.5584 20.6431C21.6529 20.7358 21.7656 20.8076 21.8894 20.854C22.0134 20.9007 22.1455 20.9207 22.2777 20.9132C22.5236 20.9258 22.765 20.8458 22.9548 20.689L22.758 20.3585C22.6164 20.4663 22.4438 20.5257 22.2659 20.5277C22.1146 20.5155 21.9735 20.4468 21.8705 20.3353C21.7676 20.2237 21.7103 20.0776 21.7103 19.9257C21.7103 19.774 21.7676 19.6278 21.8705 19.5163C21.9735 19.4047 22.1146 19.336 22.2659 19.3238C22.4438 19.3257 22.6164 19.3851 22.758 19.493L22.9548 19.1625C22.765 19.0057 22.5236 18.9257 22.2777 18.9382C22.1455 18.9307 22.0134 18.9509 21.8894 18.9974C21.7656 19.0439 21.6529 19.1158 21.5584 19.2084C21.4639 19.3009 21.3897 19.4122 21.3409 19.5351C21.2919 19.6579 21.2691 19.7896 21.274 19.9218V19.9296ZM25.1078 18.9933H24.6985V19.2215C24.6288 19.1321 24.5391 19.0605 24.4365 19.0126C24.3338 18.9647 24.2212 18.9419 24.1081 18.9461C23.8471 18.9461 23.5968 19.0497 23.4121 19.2341C23.2275 19.4186 23.124 19.6688 23.124 19.9296C23.124 20.1905 23.2275 20.4407 23.4121 20.6252C23.5968 20.8096 23.8471 20.9132 24.1081 20.9132C24.2212 20.9174 24.3338 20.8948 24.4365 20.8468C24.5391 20.799 24.6288 20.7273 24.6985 20.6378V20.866H25.1078V18.9933ZM23.5845 19.9296C23.591 19.8189 23.6298 19.7127 23.6959 19.6236C23.7623 19.5347 23.8532 19.467 23.9573 19.429C24.0616 19.391 24.1746 19.3843 24.2826 19.4097C24.3907 19.4351 24.4889 19.4916 24.565 19.572C24.6414 19.6525 24.6926 19.7536 24.7121 19.8628C24.7317 19.9719 24.7189 20.0845 24.6755 20.1864C24.6318 20.2883 24.5593 20.3754 24.4668 20.4368C24.3745 20.4982 24.2661 20.531 24.1553 20.5316C24.0774 20.5326 24 20.5174 23.9282 20.4871C23.8565 20.4569 23.7918 20.412 23.7381 20.3555C23.6845 20.2989 23.6432 20.232 23.6168 20.1586C23.5903 20.0854 23.5792 20.0073 23.5845 19.9296ZM18.6446 18.9461C18.3836 18.9497 18.1348 19.0568 17.9528 19.2439C17.7708 19.4309 17.6707 19.6826 17.6743 19.9434C17.678 20.2043 17.7852 20.4531 17.9723 20.6349C18.1594 20.8169 18.4112 20.917 18.6721 20.9132C18.9553 20.9278 19.2338 20.8367 19.4535 20.6575L19.2567 20.3546C19.1013 20.4791 18.9087 20.5483 18.7095 20.5513C18.5742 20.5629 18.4397 20.5214 18.3346 20.4354C18.2295 20.3494 18.1621 20.2259 18.1467 20.091H19.544C19.544 20.0398 19.544 19.9887 19.544 19.9336C19.544 19.3435 19.1779 18.95 18.6505 18.95L18.6446 18.9461ZM18.6446 19.312C18.7058 19.3107 18.7668 19.3214 18.8238 19.3437C18.8809 19.3659 18.9331 19.3992 18.9773 19.4415C19.0215 19.4839 19.057 19.5346 19.0816 19.5907C19.1062 19.6468 19.1196 19.7071 19.1209 19.7683H18.1368C18.144 19.6421 18.2003 19.5236 18.2937 19.4383C18.3871 19.353 18.5103 19.3076 18.6367 19.312H18.6446ZM28.9003 18.2379H28.5067V19.2215C28.4371 19.1321 28.3473 19.0605 28.2448 19.0126C28.142 18.9647 28.0295 18.9419 27.9163 18.9461C27.6553 18.9461 27.405 19.0497 27.2204 19.2341C27.0358 19.4186 26.9323 19.6688 26.9323 19.9296C26.9323 20.1905 27.0358 20.4407 27.2204 20.6252C27.405 20.8096 27.6553 20.9132 27.9163 20.9132C28.0295 20.9174 28.142 20.8948 28.2448 20.8468C28.3473 20.799 28.4371 20.7273 28.5067 20.6378V20.866H28.9003V18.2379ZM29.5833 20.6005C29.6089 20.6003 29.6342 20.6048 29.6581 20.6142C29.6807 20.6235 29.7014 20.6369 29.7191 20.6536C29.7364 20.6705 29.7504 20.6906 29.7604 20.7126C29.7702 20.7356 29.7754 20.7604 29.7754 20.7854C29.7754 20.8104 29.7702 20.8351 29.7604 20.8582C29.7504 20.8802 29.7364 20.9003 29.7191 20.9172C29.7014 20.9339 29.6807 20.9473 29.6581 20.9565C29.6344 20.967 29.6091 20.9723 29.5833 20.9723C29.5459 20.9721 29.5095 20.961 29.4782 20.941C29.4467 20.9207 29.4217 20.892 29.4061 20.8582C29.3963 20.8351 29.3912 20.8104 29.3912 20.7854C29.3912 20.7604 29.3963 20.7356 29.4061 20.7126C29.4162 20.6906 29.4302 20.6705 29.4475 20.6536C29.4652 20.6369 29.4858 20.6235 29.5085 20.6142C29.5341 20.604 29.5616 20.5995 29.5892 20.6005H29.5833ZM29.5833 20.9329C29.6028 20.9331 29.6222 20.929 29.6403 20.9211C29.6573 20.9136 29.6726 20.9028 29.6856 20.8896C29.7102 20.8629 29.7238 20.8277 29.7238 20.7913C29.7238 20.7549 29.7102 20.7199 29.6856 20.6929C29.6726 20.6797 29.6573 20.6689 29.6403 20.6614C29.6222 20.6536 29.6028 20.6496 29.5833 20.6496C29.5636 20.6498 29.5441 20.6538 29.5262 20.6614C29.5085 20.6687 29.4923 20.6793 29.479 20.6929C29.4544 20.7199 29.4406 20.7549 29.4406 20.7913C29.4406 20.8277 29.4544 20.8629 29.479 20.8896C29.4923 20.9032 29.5085 20.9138 29.5262 20.9211C29.5461 20.9298 29.5675 20.9337 29.5892 20.9329H29.5833ZM29.5951 20.6988C29.6134 20.698 29.6315 20.7035 29.6462 20.7146C29.6522 20.7195 29.6569 20.726 29.66 20.733C29.6632 20.7403 29.6644 20.7482 29.664 20.7559C29.6642 20.7624 29.6632 20.7691 29.6608 20.7751C29.6585 20.7812 29.6547 20.7868 29.6502 20.7913C29.6388 20.8017 29.6242 20.808 29.6089 20.809L29.6659 20.8739H29.6207L29.5675 20.809H29.5498V20.8739H29.5124V20.7008L29.5951 20.6988ZM29.5518 20.7323V20.7795H29.5951C29.6028 20.7818 29.611 20.7818 29.6187 20.7795C29.6201 20.7767 29.6207 20.7738 29.6207 20.7706C29.6207 20.7677 29.6201 20.7645 29.6187 20.7618C29.6201 20.759 29.6207 20.7561 29.6207 20.7529C29.6207 20.75 29.6201 20.7468 29.6187 20.7441C29.611 20.7417 29.6028 20.7417 29.5951 20.7441L29.5518 20.7323ZM27.3869 19.9336C27.3934 19.8228 27.4322 19.7166 27.4983 19.6276C27.5646 19.5386 27.6555 19.471 27.7596 19.433C27.864 19.395 27.9769 19.3882 28.085 19.4137C28.193 19.4391 28.2912 19.4955 28.3674 19.576C28.4437 19.6565 28.4949 19.7575 28.5144 19.8667C28.5341 19.9759 28.5213 20.0884 28.4778 20.1903C28.4341 20.2922 28.3617 20.3793 28.2692 20.4407C28.1769 20.5021 28.0684 20.535 27.9576 20.5355C27.8797 20.5365 27.8023 20.5214 27.7305 20.4911C27.6589 20.4608 27.5941 20.4159 27.5404 20.3595C27.4869 20.3028 27.4455 20.2359 27.4192 20.1626C27.3926 20.0894 27.3816 20.0113 27.3869 19.9336ZM13.565 18.9933H13.1556V19.2215C13.0861 19.1321 12.9963 19.0605 12.8936 19.0126C12.791 18.9647 12.6784 18.9419 12.5652 18.9461C12.3042 18.9461 12.0539 19.0497 11.8693 19.2341C11.6848 19.4186 11.5811 19.6688 11.5811 19.9296C11.5811 20.1905 11.6848 20.4407 11.8693 20.6252C12.0539 20.8096 12.3042 20.9132 12.5652 20.9132C12.6784 20.9174 12.791 20.8948 12.8936 20.8468C12.9963 20.799 13.0861 20.7273 13.1556 20.6378V20.866H13.565V18.9933ZM12.0417 19.9336C12.0482 19.8228 12.087 19.7166 12.1532 19.6276C12.2195 19.5386 12.3103 19.471 12.4145 19.433C12.5187 19.395 12.6318 19.3882 12.7398 19.4137C12.8478 19.4391 12.946 19.4955 13.0223 19.576C13.0986 19.6565 13.1497 19.7575 13.1693 19.8667C13.1889 19.9759 13.1761 20.0884 13.1325 20.1903C13.089 20.2922 13.0165 20.3793 12.9241 20.4407C12.8317 20.5021 12.7234 20.535 12.6124 20.5355C12.5342 20.5371 12.4564 20.5224 12.3842 20.4923C12.3119 20.4622 12.2467 20.4175 12.1927 20.3609C12.1386 20.3042 12.097 20.2371 12.0703 20.1635C12.0436 20.09 12.0325 20.0117 12.0377 19.9336H12.0417Z" fill="white"></path>
<path d="M21.648 4.66214H15.4484V15.7985H21.648V4.66214Z" fill="#FF5F00"></path>
<path d="M15.842 10.2313C15.8409 9.15866 16.084 8.09978 16.5528 7.1349C17.0216 6.17003 17.704 5.32442 18.5482 4.66214C17.5029 3.84106 16.2477 3.33049 14.9259 3.18875C13.6041 3.04704 12.2691 3.27988 11.0734 3.86068C9.87772 4.44148 8.86965 5.34681 8.16438 6.47317C7.45912 7.59956 7.08511 8.90154 7.08511 10.2303C7.08511 11.5591 7.45912 12.8611 8.16438 13.9875C8.86965 15.1139 9.87772 16.0192 11.0734 16.6C12.2691 17.1808 13.6041 17.4136 14.9259 17.2719C16.2477 17.1302 17.5029 16.6196 18.5482 15.7985C17.7042 15.1364 17.0221 14.2912 16.5532 13.3266C16.0844 12.3621 15.8412 11.3036 15.842 10.2313Z" fill="#EB001B"></path>
<path d="M30.0123 10.2313C30.0121 11.5602 29.6382 12.8623 28.9328 13.9887C28.2273 15.1151 27.219 16.0204 26.0232 16.6011C24.8274 17.1818 23.4922 17.4145 22.1705 17.2726C20.8485 17.1307 19.5933 16.6199 18.5482 15.7985C19.3917 15.1359 20.0737 14.2903 20.5427 13.3258C21.0117 12.3612 21.2553 11.3028 21.2553 10.2303C21.2553 9.15789 21.0117 8.09947 20.5427 7.13489C20.0737 6.17032 19.3917 5.32479 18.5482 4.66214C19.5933 3.84081 20.8485 3.32998 22.1705 3.18805C23.4922 3.04613 24.8274 3.27881 26.0232 3.85953C27.219 4.44026 28.2273 5.34555 28.9328 6.47197C29.6382 7.59838 30.0121 8.90046 30.0123 10.2294V10.2313Z" fill="#F79E1B"></path>
<path d="M29.3353 14.6182V14.39H29.4278V14.3428H29.1936V14.39H29.294V14.6182H29.3353ZM29.7899 14.6182V14.3428H29.7191L29.6364 14.5395L29.5537 14.3428H29.4908V14.6182H29.5419V14.4116L29.6187 14.5907H29.6718L29.7486 14.4116V14.6202L29.7899 14.6182Z" fill="#F79E1B"></path>
</g></svg>