<svg xmlns="http://www.w3.org/2000/svg" viewBox="0.983612060546875 0 36.9999885559082 24"><g xmlns="http://www.w3.org/2000/svg" clip-path="url(#clip0_2882_265)">
<path d="M0.983612 4C0.983612 1.79086 2.77447 0 4.98361 0H33.9836C36.1928 0 37.9836 1.79086 37.9836 4V20C37.9836 22.2091 36.1928 24 33.9836 24H4.98361C2.77447 24 0.983612 22.2091 0.983612 20V4Z" fill="white"></path>
<path d="M0.983612 1.57377C0.983612 0.704601 1.68852 0 2.55808 0H36.4091C37.2786 0 37.9836 0.704601 37.9836 1.57377V22.4262C37.9836 23.2953 37.2786 24 36.4091 24H2.55808C1.68852 24 0.983612 23.2953 0.983612 22.4262V1.57377Z" fill="black"></path>
<path d="M37.1964 0.0491803H1.77085C1.36324 0.0491803 1.03281 0.379462 1.03281 0.786885V23.2131C1.03281 23.6205 1.36324 23.9508 1.77085 23.9508H37.1964C37.604 23.9508 37.9344 23.6205 37.9344 23.2131V0.786885C37.9344 0.379462 37.604 0.0491803 37.1964 0.0491803Z" fill="white"></path>
<path fill-rule="evenodd" clip-rule="evenodd" d="M1.77085 0.0983607C1.39042 0.0983607 1.08202 0.406623 1.08202 0.786885V23.2131C1.08202 23.5934 1.39042 23.9016 1.77085 23.9016H37.1964C37.5768 23.9016 37.8852 23.5934 37.8852 23.2131V0.786885C37.8852 0.406623 37.5768 0.0983607 37.1964 0.0983607H1.77085ZM0.983612 0.786885C0.983612 0.3523 1.33607 0 1.77085 0H37.1964C37.6311 0 37.9836 0.3523 37.9836 0.786885V23.2131C37.9836 23.6477 37.6311 24 37.1964 24H1.77085C1.33607 24 0.983612 23.6477 0.983612 23.2131V0.786885Z" fill="#495057"></path>
<path fill-rule="evenodd" clip-rule="evenodd" d="M13.5215 10.1198C13.4598 11.153 14.4698 11.0094 14.4168 10.232C14.3957 9.92239 13.8361 9.55287 13.442 9.17353C13.2267 8.9663 12.9711 8.79338 12.7664 8.54176C12.2633 7.92336 12.402 6.92603 12.9506 6.40436C13.4604 5.91964 14.4783 5.90845 15.0654 6.40849C15.3707 6.6684 15.5279 7.07496 15.5371 7.62812H14.4168C14.4558 6.75565 13.5955 6.86829 13.5955 7.39306C13.5955 7.56266 13.6505 7.70349 13.7605 7.8156C14.6013 8.67254 15.5375 9.23583 15.5375 10.0843C15.5375 10.7297 15.3751 11.1714 15.0501 11.4094C14.4276 11.8652 13.2898 11.9602 12.7549 11.3068C12.525 11.0259 12.4086 10.6302 12.4057 10.1198H13.5215ZM15.9382 10.0022V7.56537C15.9382 7.01837 16.096 6.63136 16.4115 6.40436C16.7271 6.17734 17.1092 6.06388 17.5578 6.06388C17.617 6.06388 17.6774 6.06663 17.739 6.07208C17.8006 6.07755 17.861 6.08304 17.9202 6.08849C18.2357 6.13772 18.5229 6.27171 18.7817 6.49052C19.0406 6.70934 19.17 7.06759 19.17 7.56537V10.0022C19.17 10.5438 19.0406 10.9731 18.7817 11.2904C18.5229 11.6076 18.0976 11.7663 17.506 11.7663C16.9046 11.7663 16.4929 11.5871 16.271 11.2288C16.0491 10.8706 15.9382 10.4617 15.9382 10.0022ZM17.1289 7.50795V10.2894C17.1289 10.4425 17.172 10.5588 17.2583 10.6381C17.3446 10.7174 17.4395 10.7571 17.543 10.7571H17.5652C17.6638 10.7516 17.755 10.7106 17.8388 10.634C17.9226 10.5574 17.9645 10.4425 17.9645 10.2894V7.50795C17.9645 7.35476 17.9226 7.23991 17.8388 7.16333C17.755 7.08675 17.6638 7.04571 17.5652 7.04026H17.543C17.4395 7.04026 17.3446 7.0785 17.2583 7.15513C17.172 7.23171 17.1289 7.34931 17.1289 7.50795ZM19.7159 11.6596V6.19515H21.3588C22.176 6.19515 22.6733 6.44148 22.6985 7.33625C22.7081 7.68618 22.6526 7.97622 22.5611 8.20593C22.4694 8.43567 22.3131 8.60801 22.0921 8.72288C22.2659 8.77757 22.4025 8.86233 22.5011 8.97724C22.5999 9.09207 22.6436 9.23715 22.6491 9.41207L22.6985 10.9704C22.705 11.1727 22.7195 11.3095 22.7619 11.3806C22.8042 11.4518 22.849 11.4873 22.8959 11.4873V11.6596H21.8947C21.7489 11.6596 21.655 11.6336 21.6125 11.5816C21.5704 11.5297 21.5491 11.4025 21.5491 11.2002V9.9012C21.5491 9.72069 21.5186 9.5867 21.4574 9.4992C21.3964 9.4117 21.2813 9.36793 21.112 9.36793H20.851V11.6596H19.7159ZM20.851 8.44357H21.112C21.2201 8.44357 21.32 8.39162 21.4115 8.28771C21.5033 8.1838 21.5491 8.12876 21.5491 7.89358V7.65747C21.5491 7.3367 21.4186 7.15558 21.2988 7.10365C21.1789 7.05167 21.0297 7.0257 20.851 7.0257V8.44357ZM23.2879 10.0022V7.56537C23.2879 7.01837 23.4456 6.63136 23.7612 6.40436C24.0767 6.17734 24.4589 6.06388 24.9075 6.06388C24.9665 6.06388 25.0269 6.06663 25.0887 6.07208C25.1503 6.07755 25.2105 6.08304 25.2698 6.08849C25.5853 6.13772 25.8726 6.27171 26.1314 6.49052C26.3902 6.70934 26.5197 7.06759 26.5197 7.56537V10.0022C26.5197 10.5438 26.3902 10.9731 26.1314 11.2904C25.8726 11.6076 25.4473 11.7663 24.8557 11.7663C24.2542 11.7663 23.8425 11.5871 23.6207 11.2288C23.3987 10.8706 23.2879 10.4617 23.2879 10.0022ZM24.4786 7.50795V10.2894C24.4786 10.4425 24.5217 10.5588 24.6079 10.6381C24.6941 10.7174 24.7892 10.7571 24.8925 10.7571H24.9147C25.0133 10.7516 25.1047 10.7106 25.1885 10.634C25.2723 10.5574 25.3141 10.4425 25.3141 10.2894V7.50795C25.3141 7.35476 25.2723 7.23991 25.1885 7.16333C25.1047 7.08675 25.0133 7.04571 24.9147 7.04026H24.8925C24.7892 7.04026 24.6941 7.0785 24.6079 7.15513C24.5217 7.23171 24.4786 7.34931 24.4786 7.50795Z" fill="#A88F40"></path>
<path fill-rule="evenodd" clip-rule="evenodd" d="M15.5376 15.9267V16.5196C15.5376 16.9308 15.4223 17.2419 15.1918 17.453C14.9612 17.6639 14.7076 17.8018 14.4309 17.8668C14.3484 17.8885 14.2658 17.9034 14.1833 17.9115C14.1008 17.9196 14.0231 17.9236 13.9503 17.9236C13.4067 17.9236 13.005 17.7884 12.7453 17.5178C12.4857 17.2473 12.3558 16.8009 12.3558 16.1788V13.7684C12.3558 13.341 12.4735 12.9771 12.7089 12.6768C12.9444 12.3765 13.3582 12.2264 13.9503 12.2264C14.4309 12.2264 14.8156 12.3576 15.1044 12.62C15.3932 12.8824 15.5376 13.2842 15.5376 13.8252V14.1453H14.2998V13.598C14.2998 13.4898 14.2646 13.4045 14.1942 13.3423C14.1239 13.2801 14.045 13.2436 13.9576 13.2327H13.8848C13.7926 13.2436 13.7101 13.2828 13.6373 13.3504C13.5644 13.4181 13.528 13.5195 13.528 13.6548V16.5196C13.528 16.644 13.5644 16.7455 13.6373 16.8239C13.7101 16.9024 13.7926 16.947 13.8848 16.9578H13.9503C13.96 16.9578 13.9673 16.9552 13.9722 16.9497C14.0693 16.9389 14.1566 16.8875 14.2343 16.7955C14.312 16.7036 14.3508 16.5737 14.3508 16.406V15.9267H15.5376ZM16.2006 17.817V12.3525H17.8435C18.6608 12.3525 19.1581 12.5989 19.1832 13.4936C19.1931 13.8435 19.1374 14.1336 19.0458 14.3633C18.9541 14.593 18.7978 14.7654 18.5768 14.8802C18.7508 14.9349 18.8871 15.0197 18.9858 15.1346C19.0845 15.2495 19.1284 15.3945 19.1339 15.5695L19.1832 17.1277C19.1896 17.33 19.2044 17.4669 19.2467 17.538C19.289 17.6091 19.3336 17.6446 19.3807 17.6446V17.817H18.3794C18.2337 17.817 18.1397 17.791 18.0974 17.739C18.0551 17.6871 18.0339 17.5599 18.0339 17.3575V16.0586C18.0339 15.8781 18.0034 15.7441 17.9422 15.6565C17.8811 15.569 17.766 15.5252 17.5967 15.5252H17.3359V17.817H16.2006ZM17.3359 14.601H17.5967C17.7049 14.601 17.8048 14.549 17.8965 14.445C17.9881 14.3411 18.0339 14.2861 18.0339 14.0509V13.8148C18.0339 13.4941 17.9035 13.313 17.7836 13.261C17.6638 13.209 17.5145 13.183 17.3359 13.183V14.601ZM20.0192 17.817V12.3525H22.7628V13.3782H21.2023V14.4284H22.5097V15.5688H21.2023V16.7339H22.7628V17.817H20.0192ZM23.3973 17.817V12.3525H24.7329C25.367 12.3525 25.8145 12.4332 26.0759 12.5945C26.3373 12.7559 26.4678 13.0937 26.4678 13.6079V16.5042C26.4678 16.9035 26.3542 17.2221 26.1267 17.46C25.8994 17.698 25.5193 17.817 24.9872 17.817H23.3973ZM24.566 16.9747C24.7789 16.9747 24.9519 16.9433 25.085 16.8804C25.218 16.8175 25.2845 16.6575 25.2845 16.4004V13.7341C25.2845 13.5208 25.2265 13.3827 25.1106 13.3198C24.9944 13.2569 24.8685 13.2217 24.7329 13.2172C24.704 13.2162 24.6762 13.2172 24.6494 13.2172H24.566V16.9747Z" fill="#A88F40"></path>
<path fill-rule="evenodd" clip-rule="evenodd" d="M13.3818 4.81713H14.5993V6.14266C14.2066 6.00136 13.7533 6.00289 13.3818 6.14166V4.81713Z" fill="#DF3838"></path>
<path fill-rule="evenodd" clip-rule="evenodd" d="M14.5993 17.8173V19.1944H13.3819V17.8626C13.55 17.9033 13.7395 17.9236 13.9503 17.9236C14.0231 17.9236 14.1008 17.9196 14.1833 17.9115C14.2658 17.9034 14.3484 17.8885 14.4309 17.8668C14.488 17.8534 14.5441 17.8369 14.5993 17.8173Z" fill="#4AAB54"></path>
<path fill-rule="evenodd" clip-rule="evenodd" d="M27.749 3.61485H11.0928V20.385H27.749V3.61485ZM28.0176 3.34426V20.6557H10.824V3.34426H28.0176Z" fill="#A88F40"></path>
</g></svg>