<svg xmlns="http://www.w3.org/2000/svg" viewBox="0.9672240614891052 0 36.999977111816406 24"><g xmlns="http://www.w3.org/2000/svg" clip-path="url(#clip0_2882_266)">
<path d="M0.967224 4C0.967224 1.79086 2.75809 0 4.96722 0H33.9672C36.1764 0 37.9672 1.79086 37.9672 4V20C37.9672 22.2091 36.1764 24 33.9672 24H4.96722C2.75809 24 0.967224 22.2091 0.967224 20V4Z" fill="white"></path>
<path d="M0.967224 1.57377C0.967224 0.704601 1.67214 0 2.54169 0H36.3928C37.2623 0 37.9672 0.704601 37.9672 1.57377V22.4262C37.9672 23.2953 37.2623 24 36.3928 24H2.54169C1.67214 24 0.967224 23.2953 0.967224 22.4262V1.57377Z" fill="black"></path>
<path d="M37.18 0.0491803H1.75446C1.34685 0.0491803 1.01643 0.379462 1.01643 0.786885V23.2131C1.01643 23.6205 1.34685 23.9508 1.75446 23.9508H37.18C37.5876 23.9508 37.918 23.6205 37.918 23.2131V0.786885C37.918 0.379462 37.5876 0.0491803 37.18 0.0491803Z" fill="#1434CB"></path>
<path d="M18.7355 7.44626L16.7891 16.6069H14.4355L16.3822 7.44626H18.7355ZM28.6377 13.3614L29.8768 9.92121L30.5899 13.3614H28.6377ZM31.2637 16.6069H33.4406L31.541 7.44626H29.5314C29.0799 7.44626 28.6991 7.71069 28.5295 8.11835L24.9983 16.6069H27.47L27.9607 15.239H30.9803L31.2637 16.6069ZM25.1211 13.6159C25.1312 11.1981 21.8004 11.065 21.8232 9.98498C21.8303 9.65593 22.1415 9.30683 22.8214 9.21724C23.1592 9.17286 24.0879 9.13894 25.1424 9.6275L25.5553 7.6849C24.9889 7.47787 24.2601 7.27869 23.3536 7.27869C21.0273 7.27869 19.39 8.52397 19.3762 10.3071C19.3615 11.6258 20.5449 12.3616 21.4369 12.8C22.3536 13.2491 22.6618 13.5368 22.6579 13.9383C22.6518 14.5533 21.9263 14.8241 21.2497 14.8348C20.0661 14.8537 19.3793 14.5133 18.8319 14.2564L18.4054 16.2637C18.9552 16.5179 19.9702 16.7389 21.0232 16.7502C23.4955 16.7502 25.1131 15.5203 25.1211 13.6159ZM15.3723 7.44626L11.5591 16.6069H9.07076L7.19436 9.2961C7.08033 8.84581 6.98126 8.68112 6.63486 8.4912C6.06956 8.18243 5.13512 7.8922 4.31297 7.71242L4.36912 7.44626H8.37388C8.88416 7.44626 9.34345 7.78839 9.45922 8.38017L10.4504 13.6815L12.8995 7.44626H15.3723Z" fill="white"></path>
</g></svg>