<svg width="489" height="156" viewBox="0 0 489 156" fill="none" xmlns="http://www.w3.org/2000/svg">
<rect x="8" y="9" width="138" height="138" stroke="white" stroke-width="16"/>
<path d="M77 9H146V78" stroke="#00A959" stroke-width="16"/>
<path d="M169.694 0.984068H189.775L210.985 52.7291H211.887L233.097 0.984068H253.178V78H237.384V27.872H236.744L216.813 77.6239H206.058L186.127 27.6839H185.488V78H169.694V0.984068ZM314.164 0.984068H330.448V50.9993C330.448 56.615 329.106 61.5288 326.424 65.7406C323.766 69.9524 320.043 73.2366 315.255 75.5933C310.467 77.9248 304.888 79.0906 298.521 79.0906C292.128 79.0906 286.537 77.9248 281.749 75.5933C276.96 73.2366 273.237 69.9524 270.58 65.7406C267.922 61.5288 266.594 56.615 266.594 50.9993V0.984068H282.877V49.6079C282.877 52.5411 283.516 55.1484 284.795 57.4298C286.098 59.7112 287.928 61.5037 290.285 62.8074C292.642 64.1111 295.387 64.7629 298.521 64.7629C301.679 64.7629 304.425 64.1111 306.756 62.8074C309.113 61.5037 310.93 59.7112 312.209 57.4298C313.513 55.1484 314.164 52.5411 314.164 49.6079V0.984068ZM343.845 78V0.984068H360.128V64.5749H393.145V78H343.845ZM391.378 14.4092V0.984068H454.63V14.4092H431.052V78H414.956V14.4092H391.378ZM481.33 0.984068V78H465.047V0.984068H481.33Z" fill="white"/>
<path d="M169.537 155V95.4986H191.327C195.55 95.4986 199.046 96.1959 201.815 97.5904C204.585 98.9656 206.658 100.835 208.033 103.198C209.408 105.541 210.096 108.185 210.096 111.129C210.096 113.609 209.64 115.7 208.73 117.405C207.82 119.09 206.6 120.446 205.069 121.472C203.559 122.48 201.893 123.216 200.072 123.68V124.261C202.048 124.358 203.975 124.998 205.854 126.179C207.752 127.341 209.321 128.997 210.56 131.147C211.8 133.297 212.42 135.912 212.42 138.992C212.42 142.032 211.703 144.764 210.27 147.185C208.856 149.586 206.667 151.494 203.704 152.908C200.74 154.303 196.954 155 192.344 155H169.537ZM178.515 147.301H191.472C195.772 147.301 198.852 146.468 200.711 144.802C202.571 143.137 203.5 141.054 203.5 138.556C203.5 136.677 203.026 134.953 202.077 133.384C201.128 131.815 199.772 130.566 198.009 129.636C196.266 128.707 194.194 128.242 191.792 128.242H178.515V147.301ZM178.515 121.24H190.543C192.557 121.24 194.368 120.853 195.976 120.078C197.603 119.303 198.891 118.218 199.84 116.824C200.808 115.41 201.292 113.744 201.292 111.827C201.292 109.367 200.43 107.304 198.707 105.638C196.983 103.973 194.339 103.14 190.775 103.14H178.515V121.24ZM223.068 155V95.4986H244.277C248.906 95.4986 252.741 96.3411 255.782 98.0262C258.823 99.7113 261.099 102.016 262.61 104.941C264.12 107.846 264.876 111.12 264.876 114.761C264.876 118.422 264.111 121.714 262.581 124.639C261.07 127.545 258.784 129.849 255.724 131.554C252.683 133.239 248.858 134.082 244.248 134.082H229.663V126.47H243.434C246.359 126.47 248.732 125.966 250.552 124.959C252.373 123.932 253.71 122.538 254.562 120.775C255.414 119.012 255.84 117.008 255.84 114.761C255.84 112.514 255.414 110.519 254.562 108.776C253.71 107.033 252.363 105.667 250.523 104.679C248.703 103.692 246.301 103.198 243.318 103.198H232.045V155H223.068ZM327.086 125.249C327.086 131.602 325.924 137.064 323.6 141.635C321.276 146.187 318.09 149.693 314.041 152.153C310.013 154.593 305.432 155.813 300.299 155.813C295.147 155.813 290.547 154.593 286.499 152.153C282.47 149.693 279.294 146.177 276.969 141.606C274.645 137.035 273.483 131.583 273.483 125.249C273.483 118.896 274.645 113.444 276.969 108.892C279.294 104.321 282.47 100.815 286.499 98.3749C290.547 95.915 295.147 94.6851 300.299 94.6851C305.432 94.6851 310.013 95.915 314.041 98.3749C318.09 100.815 321.276 104.321 323.6 108.892C325.924 113.444 327.086 118.896 327.086 125.249ZM318.196 125.249C318.196 120.407 317.412 116.33 315.843 113.018C314.293 109.686 312.163 107.168 309.451 105.464C306.759 103.74 303.708 102.878 300.299 102.878C296.871 102.878 293.811 103.74 291.118 105.464C288.426 107.168 286.295 109.686 284.727 113.018C283.177 116.33 282.402 120.407 282.402 125.249C282.402 130.092 283.177 134.178 284.727 137.51C286.295 140.822 288.426 143.34 291.118 145.064C293.811 146.768 296.871 147.62 300.299 147.62C303.708 147.62 306.759 146.768 309.451 145.064C312.163 143.34 314.293 140.822 315.843 137.51C317.412 134.178 318.196 130.092 318.196 125.249Z" fill="white"/>
</svg>
